<svg xmlns="http://www.w3.org/2000/svg" width="77.985" height="69.336" viewBox="0 0 77.985 69.336">
  <path id="blogIcon" d="M74,1.293a2.106,2.106,0,0,0-3.832-.162,23.219,23.219,0,0,1-20.3,11.848H39.043a26,26,0,0,0-26,26,26.772,26.772,0,0,0,.2,2.776C21.888,35.563,34.358,30.31,52.042,30.31a2.166,2.166,0,1,1,0,4.333C18,34.643,3.568,55.508.372,63.348A4.339,4.339,0,0,0,8.4,66.638a35.623,35.623,0,0,1,9.735-12.268A25.94,25.94,0,0,0,41.819,64.824c21.258-1.544,36.22-20.608,36.22-43.952A49.238,49.238,0,0,0,74,1.293Z" transform="translate(-0.055 0.024)"/>
</svg>
