<svg xmlns="http://www.w3.org/2000/svg" width="66" height="66" viewBox="0 0 66 66">
  <path id="experienceIcon" d="M56.1,12.2H44.51v-.245c0-4.443-3.35-14.531-7.71-14.531H27.39c-4.36,0-7.89,10.1-7.89,14.531V12.2H7.9A7.987,7.987,0,0,0,0,20.249V53.371a7.981,7.981,0,0,0,7.9,8.051H56.1A7.981,7.981,0,0,0,64,53.371V20.249A7.981,7.981,0,0,0,56.1,12.2Zm-34.24-.245C21.86,8.844,24.34.821,27.39.821H36.8c3.05,0,5.33,8.024,5.33,11.132V12.2H21.86ZM7.9,14.613H56.1a5.589,5.589,0,0,1,5.53,5.636V31.337H37.98V28.9a1.194,1.194,0,0,0-1.18-1.2H27.22a1.187,1.187,0,0,0-1.18,1.2v2.436H2.37V20.249A5.589,5.589,0,0,1,7.9,14.613Zm27.71,15.5v4.861H28.4V30.114Zm20.49,28.9H7.9a5.589,5.589,0,0,1-5.53-5.636V33.752H26.02v2.436a1.187,1.187,0,0,0,1.18,1.2h9.58a1.194,1.194,0,0,0,1.18-1.2V33.752H61.61V53.371A5.568,5.568,0,0,1,56.1,59.017Z" transform="translate(1 3.578)" stroke="#000" stroke-width="2"/>
</svg>
