<svg xmlns="http://www.w3.org/2000/svg" xmlns:xlink="http://www.w3.org/1999/xlink" width="82.459" height="108.27" viewBox="0 0 82.459 108.27">
  <defs>
    <clipPath id="clip-path">
      <rect x="16" y="6" width="82.459" height="108.27" fill="none"/>
    </clipPath>
    <linearGradient id="linear-gradient" x1="0.5" x2="0.938" y2="0.162" gradientUnits="objectBoundingBox">
      <stop offset="0" stop-color="#745f67"/>
      <stop offset="1" stop-color="#47232f"/>
    </linearGradient>
    <linearGradient id="linear-gradient-2" x1="-0.005" y1="0.148" x2="0.763" y2="0.971" gradientUnits="objectBoundingBox">
      <stop offset="0" stop-color="#fef388"/>
      <stop offset="0.27" stop-color="#cca962"/>
      <stop offset="0.609" stop-color="#936440"/>
      <stop offset="1" stop-color="#3b0f09"/>
    </linearGradient>
    <radialGradient id="radial-gradient" cx="0.105" cy="0.906" r="1.098" gradientTransform="matrix(0.029, -1, 1.283, 0.038, -1.06, 0.977)" gradientUnits="objectBoundingBox">
      <stop offset="0" stop-color="#562522"/>
      <stop offset="0.51" stop-color="#5c2b28"/>
      <stop offset="0.824" stop-color="#976260"/>
      <stop offset="1" stop-color="#a16c6a"/>
    </radialGradient>
    <linearGradient id="linear-gradient-3" x1="0.462" y1="0.431" x2="0.612" y2="0.701" gradientUnits="objectBoundingBox">
      <stop offset="0" stop-color="#d0a733"/>
      <stop offset="1" stop-color="#f8e87d"/>
    </linearGradient>
    <linearGradient id="linear-gradient-4" x1="0.5" y1="0" x2="0.5" y2="1" xlink:href="#linear-gradient-3"/>
    <linearGradient id="linear-gradient-5" x1="0.537" y1="0.181" x2="0.132" y2="0.669" xlink:href="#linear-gradient-3"/>
  </defs>
  <g id="LogoCyberSoft" transform="translate(-16 -6)" clip-path="url(#clip-path)" style="isolation: isolate">
    <g id="LogoCyberSoft-2" data-name="LogoCyberSoft" transform="translate(-307.621 -830.771)">
      <g id="Group_5" data-name="Group 5" transform="translate(-385 20)">
        <path id="Path_254" data-name="Path 254" d="M18.414,6.953,66.074-.384,45.5,42.892l-46.53,6.261Z" transform="matrix(0.799, 0.602, -0.602, 0.799, 738.519, 832.7)" fill="url(#linear-gradient)"/>
        <path id="Path_256" data-name="Path 256" d="M-10.276,17.158,35.8,10.889,54.134,36.3,8.923,42.635Z" transform="matrix(0.799, 0.602, -0.602, 0.799, 726.84, 863.943)" fill="url(#linear-gradient-2)"/>
        <path id="Path_257" data-name="Path 257" d="M52.714,23.313,53.2,54.662,11.416,78.187,10.308,46.449Z" transform="matrix(-0.999, -0.035, 0.035, -0.999, 800.024, 950.812)" fill="url(#radial-gradient)"/>
      </g>
      <g id="Group_6" data-name="Group 6" transform="translate(-384 -20)">
        <path id="Path_254-2" data-name="Path 254" d="M18.414,6.953,66.074-.384,45.5,42.892l-46.53,6.261Z" transform="matrix(0.799, 0.602, -0.602, 0.799, 737.519, 851.7)" fill="url(#linear-gradient-3)"/>
        <path id="Path_256-2" data-name="Path 256" d="M.041,32.925l46.75-6.371L54.134,36.3,7.8,43.223l-7.76-10.3Z" transform="matrix(0.799, 0.602, -0.602, 0.799, 726.84, 863.943)" fill="url(#linear-gradient-4)"/>
        <path id="Path_257-2" data-name="Path 257" d="M52.714,23.313l.437,12.519L11.481,59.4,11.024,46.32Z" transform="matrix(-0.999, -0.035, 0.035, -0.999, 800.024, 950.812)" fill="url(#linear-gradient-5)"/>
      </g>
    </g>
  </g>
</svg>
