<svg xmlns="http://www.w3.org/2000/svg" width="76.769" height="71.292" viewBox="0 0 76.769 71.292">
  <g id="referencesIcon" transform="translate(-1284 -494.509)">
    <g id="layer1" transform="translate(1284 494.509)">
      <path id="path4282" d="M66.8,2c3.2,0,6.09.843,8.107,2.86s2.86,4.91,2.86,8.107V40.384c0,3.2-.853,6.093-2.881,8.086s-4.9,2.8-8.086,2.8l-9.542.171H40.627L22.281,72.364a2.742,2.742,0,0,1-4.8-1.81l-.043-19.182-5.472-.107c-3.183,0-6.058-.8-8.086-2.8S1,43.583,1,40.384V12.967c0-3.2.853-6.073,2.87-8.065S8.73,2.093,11.892,2.011H66.8Zm0,5.483H12.042c-2.321.06-3.592.613-4.316,1.328s-1.243,1.871-1.243,4.155V40.384c0,2.285.518,3.476,1.232,4.177s1.952,1.221,4.252,1.221h.064l8.215.171A2.742,2.742,0,0,1,22.923,48.7l.032,14.587L37.328,46.9a2.742,2.742,0,0,1,2.056-.932h17.8l9.564-.182H66.8c2.3,0,3.538-.521,4.252-1.221s1.232-1.892,1.232-4.177V12.967c0-2.283-.528-3.505-1.253-4.23S69.086,7.483,66.8,7.483Z" transform="translate(-1 -2)"/>
    </g>
    <path id="quote-left-solid" d="M24.033,43.6H19.89V40.287A3.318,3.318,0,0,1,23.2,36.972h.414a1.24,1.24,0,0,0,1.243-1.243V33.243A1.24,1.24,0,0,0,23.619,32H23.2a8.285,8.285,0,0,0-8.287,8.287V52.718A2.487,2.487,0,0,0,17.4,55.2h6.63a2.487,2.487,0,0,0,2.486-2.486v-6.63A2.487,2.487,0,0,0,24.033,43.6Zm-14.917,0H4.972V40.287a3.318,3.318,0,0,1,3.315-3.315H8.7a1.24,1.24,0,0,0,1.243-1.243V33.243A1.24,1.24,0,0,0,8.7,32H8.287A8.285,8.285,0,0,0,0,40.287V52.718A2.487,2.487,0,0,0,2.486,55.2h6.63A2.487,2.487,0,0,0,11.6,52.718v-6.63A2.487,2.487,0,0,0,9.116,43.6Z" transform="matrix(1, 0.017, -0.017, 1, 1310.093, 474.302)"/>
  </g>
</svg>
