<svg xmlns="http://www.w3.org/2000/svg" width="459.257" height="358.948" viewBox="0 0 459.257 358.948">
  <g id="banner-image" transform="translate(0.004 -0.002)">
    <path id="Path_269" data-name="Path 269" d="M467.06,431.7h-427S5,378.56,22.52,337.94s81.25-36.3,97.06-68.66S55.29,184.11,73.91,123s94.32-49.18,142.64-20.67,85.26,41.33,140.29,18c53.1-22.49,114.6,29.2,97.1,89.07S416.18,266.66,421,297,503.82,309.92,467.06,431.7Z" transform="translate(-17.62 -72.75)" fill="#cacdf6"/>
    <rect id="Rectangle_66" data-name="Rectangle 66" width="80.23" height="20.09" transform="translate(192.26 332.83)" fill="#3d485e"/>
    <path id="Path_270" data-name="Path 270" d="M171,346.88H293.74a8.79,8.79,0,0,1,8.79,8.79v1.65a1.63,1.63,0,0,1-1.63,1.63h-137a1.63,1.63,0,0,1-1.63-1.63v-1.65a8.79,8.79,0,0,1,8.73-8.79Z" fill="#677291"/>
    <rect id="Rectangle_67" data-name="Rectangle 67" width="352.19" height="217.36" rx="8.51" transform="translate(56.29 120.16)" fill="#7578af"/>
    <path id="Path_271" data-name="Path 271" d="M64.79,120.16l184.94,4.46,150.24-4.46Z" fill="#b2bbf9"/>
    <path id="Path_272" data-name="Path 272" d="M80.71,315.58l180.82,4.49,116.35-4.49Z" fill="#b2bbf9"/>
    <path id="Path_273" data-name="Path 273" d="M171.02,346.88l64.47,4.01,55.38-4.01Z" fill="#b2bbf9"/>
    <path id="Path_274" data-name="Path 274" d="M92.9,410.27c13-.32,26-.45,39-.69l39-.39c26-.26,52-.3,78-.33s52,.07,78,.32l39,.4c13,.23,26,.37,39,.69-13,.32-26,.46-39,.7l-39,.39c-26,.26-52,.3-78,.33s-52-.07-78-.33l-39-.4C118.9,410.73,105.9,410.59,92.9,410.27Z" transform="translate(-17.62 -72.75)" fill="#2f3847"/>
    <path id="Path_275" data-name="Path 275" d="M76.38,137.09h312a2.51,2.51,0,0,1,2.51,2.51V313.07a2.52,2.52,0,0,1-2.52,2.52h-312a2.51,2.51,0,0,1-2.51-2.51V139.6a2.51,2.51,0,0,1,2.52-2.51Z" fill="#303947"/>
    <path id="Path_276" data-name="Path 276" d="M91.48,220.06V385.82A2.51,2.51,0,0,0,94,388.33h11.18V220.06Z" transform="translate(-17.62 -72.75)" fill="#445063"/>
    <rect id="Rectangle_68" data-name="Rectangle 68" width="23.38" height="3.81" transform="translate(101.96 172.08)" fill="#c7d2e5"/>
    <rect id="Rectangle_69" data-name="Rectangle 69" width="23.38" height="3.81" transform="translate(101.96 245.3)" fill="#c7d2e5"/>
    <rect id="Rectangle_70" data-name="Rectangle 70" width="57.52" height="3.81" transform="translate(110.09 180.22)" fill="#c7d2e5"/>
    <rect id="Rectangle_71" data-name="Rectangle 71" width="39.88" height="3.81" transform="translate(118.47 188.35)" fill="#c7d2e5"/>
    <rect id="Rectangle_72" data-name="Rectangle 72" width="57.52" height="3.81" transform="translate(109.65 196.49)" fill="#c7d2e5"/>
    <rect id="Rectangle_73" data-name="Rectangle 73" width="22.57" height="3.8" transform="translate(109.65 204.63)" fill="#c7d2e5"/>
    <rect id="Rectangle_74" data-name="Rectangle 74" width="22.57" height="3.81" transform="translate(109.65 237.17)" fill="#c7d2e5"/>
    <rect id="Rectangle_75" data-name="Rectangle 75" width="41.63" height="3.81" transform="translate(118.47 212.76)" fill="#c7d2e5"/>
    <rect id="Rectangle_76" data-name="Rectangle 76" width="84.26" height="3.81" transform="translate(118.47 220.9)" fill="#c7d2e5"/>
    <rect id="Rectangle_77" data-name="Rectangle 77" width="57.52" height="3.81" transform="translate(118.47 229.03)" fill="#c7d2e5"/>
    <rect id="Rectangle_78" data-name="Rectangle 78" width="57.52" height="3.81" transform="translate(101.96 253.44)" fill="#c7d2e5"/>
    <rect id="Rectangle_79" data-name="Rectangle 79" width="57.52" height="3.81" transform="translate(101.96 285.98)" fill="#c7d2e5"/>
    <rect id="Rectangle_80" data-name="Rectangle 80" width="57.52" height="3.81" transform="translate(109.65 261.38)" fill="#c7d2e5"/>
    <rect id="Rectangle_81" data-name="Rectangle 81" width="57.52" height="3.81" transform="translate(118.47 269.71)" fill="#c7d2e5"/>
    <rect id="Rectangle_82" data-name="Rectangle 82" width="57.52" height="3.81" transform="translate(109.65 277.85)" fill="#c7d2e5"/>
    <path id="Path_277" data-name="Path 277" d="M406,209.84H94a2.51,2.51,0,0,0-2.52,2.51v7.71h317v-7.71a2.51,2.51,0,0,0-2.48-2.51Z" transform="translate(-17.62 -72.75)" fill="#c3cce0"/>
    <path id="Path_278" data-name="Path 278" d="M103.54,215.13a3.2,3.2,0,1,1-.934-2.269A3.21,3.21,0,0,1,103.54,215.13Z" transform="translate(-17.62 -72.75)" fill="#78869e"/>
    <path id="Path_279" data-name="Path 279" d="M91.48,215q.83,21.36,1.1,42.71c.23,14.24.29,28.48.32,42.72l-.08,21.36c-.08,7.12-.1,14.24-.23,21.36q-.28,21.36-1.11,42.72-.83-21.36-1.11-42.72c-.13-7.12-.15-14.24-.23-21.36l-.08-21.36q0-21.36.32-42.72C90.61,243.47,90.93,229.19,91.48,215Z" transform="translate(-17.62 -72.75)" fill="#2f3847"/>
    <path id="Path_280" data-name="Path 280" d="M408.52,215q.83,20.52,1.1,41c.23,13.68.29,27.36.32,41l-.08,20.52c-.08,6.84-.1,13.68-.23,20.52q-.28,20.52-1.11,41-.82-20.52-1.11-41c-.13-6.84-.15-13.68-.23-20.52L407.1,297q0-20.52.32-41C407.65,242.36,408,228.63,408.52,215Z" transform="translate(-17.62 -72.75)" fill="#252d38"/>
    <rect id="Rectangle_83" data-name="Rectangle 83" width="147.51" height="150.85" rx="3.25" transform="translate(232.38 155.51)" fill="#fff"/>
    <path id="Path_281" data-name="Path 281" d="M394.26,228.26h-141a3.24,3.24,0,0,0-3.25,3.25v6.54h147.5v-6.54a3.24,3.24,0,0,0-3.25-3.25Z" transform="translate(-17.62 -72.75)" fill="#c3cce0"/>
    <path id="Path_282" data-name="Path 282" d="M262.19,233.15A3.21,3.21,0,1,1,259,230a3.21,3.21,0,0,1,3.19,3.15Z" transform="translate(-17.62 -72.75)" fill="#78869e"/>
    <rect id="Rectangle_84" data-name="Rectangle 84" width="66.17" height="117.32" rx="3.75" transform="translate(273.05 173.08)" fill="#677291"/>
    <rect id="Rectangle_85" data-name="Rectangle 85" width="13.86" height="3.38" rx="1.58" transform="translate(299.2 285.51)" fill="#445066"/>
    <rect id="Rectangle_86" data-name="Rectangle 86" width="58.81" height="104.67" rx="2.36" transform="translate(276.73 179.35)" fill="#ebf2fc"/>
    <path id="Path_283" data-name="Path 283" d="M350.8,252.1H296.71a2.36,2.36,0,0,0-2.36,2.36v18.78h58.81V254.46a2.36,2.36,0,0,0-2.36-2.36Z" transform="translate(-17.62 -72.75)" fill="#52ba81"/>
    <path id="Path_284" data-name="Path 284" d="M330.48,250H317a.9.9,0,0,1-.9-.9h0a.9.9,0,0,1,.9-.9h13.45a.9.9,0,0,1,.9.9h0a.9.9,0,0,1-.87.9Z" transform="translate(-17.62 -72.75)" fill="#445066"/>
    <circle id="Ellipse_3" data-name="Ellipse 3" cx="1.12" cy="1.12" r="1.12" transform="translate(279.23 175.44)" fill="#445066"/>
    <rect id="Rectangle_87" data-name="Rectangle 87" width="53.59" height="22.34" rx="1.52" transform="translate(279.23 203.1)" fill="#b0bcd1"/>
    <path id="Path_285" data-name="Path 285" d="M294.35,347.29v7.12a2.36,2.36,0,0,0,2.36,2.36H350.8a2.36,2.36,0,0,0,2.36-2.36v-7.12Z" transform="translate(-17.62 -72.75)" fill="#52ba81"/>
    <path id="Path_286" data-name="Path 286" d="M341.37,301.53a1.35,1.35,0,1,1-.4-.965A1.36,1.36,0,0,1,341.37,301.53Z" transform="translate(-17.62 -72.75)" fill="#677291"/>
    <path id="Path_287" data-name="Path 287" d="M345.34,301.53a1.35,1.35,0,1,1-.392-.961,1.36,1.36,0,0,1,.392.961Z" transform="translate(-17.62 -72.75)" fill="#677291"/>
    <path id="Path_288" data-name="Path 288" d="M349.31,301.53a1.36,1.36,0,1,1-.642-1.274A1.36,1.36,0,0,1,349.31,301.53Z" transform="translate(-17.62 -72.75)" fill="#677291"/>
    <path id="Path_289" data-name="Path 289" d="M40.05,333.55v25.72a1.74,1.74,0,0,0,1.83,1.64h68.63a1.94,1.94,0,0,1,1.08.33l9.46,6.38A1.84,1.84,0,0,0,124,366.3V333.55a1.74,1.74,0,0,0-1.82-1.64H41.88a1.75,1.75,0,0,0-1.83,1.64Z" transform="translate(-17.62 -72.75)" fill="#812cd2"/>
    <path id="Path_290" data-name="Path 290" d="M106.93,104v25.7a1.77,1.77,0,0,0,1.87,1.64h50.72a2.1,2.1,0,0,1,1.12.33l9.72,6.38a1.91,1.91,0,0,0,3-1.32V104a1.78,1.78,0,0,0-1.88-1.64H108.8a1.77,1.77,0,0,0-1.87,1.64Z" transform="translate(-17.62 -72.75)" fill="#812cd2"/>
    <path id="Path_291" data-name="Path 291" d="M406.91,149.15v25.72a1.63,1.63,0,0,1-1.64,1.64H360.7a1.68,1.68,0,0,0-1,.33l-8.54,6.38a1.65,1.65,0,0,1-2.63-1.32V149.15a1.63,1.63,0,0,1,1.64-1.64h55.09a1.63,1.63,0,0,1,1.65,1.64Z" transform="translate(-17.62 -72.75)" fill="#812cd2"/>
    <path id="Path_292" data-name="Path 292" d="M452,339.17v25.71a1.67,1.67,0,0,1-1.69,1.65H404.36a1.73,1.73,0,0,0-1,.32l-8.81,6.38a1.7,1.7,0,0,1-2.71-1.32V339.17a1.68,1.68,0,0,1,1.7-1.65H450.3a1.67,1.67,0,0,1,1.7,1.65Z" transform="translate(-17.62 -72.75)" fill="#812cd2"/>
    <g id="Group_9" data-name="Group 9" transform="translate(4 2.459)">
      <text id="Reactjs" transform="translate(93.58 46.27)" fill="#812cd2" font-size="13" font-family="Baloo"><tspan x="0" y="0" letter-spacing="-0.01em">R</tspan><tspan y="0">eactJS</tspan></text>
      <text id="ReactJS-2" data-name="ReactJS" transform="translate(93.98 46.27)" fill="#fff" font-size="13" font-family="Baloo"><tspan x="0" y="0" letter-spacing="-0.01em">R</tspan><tspan y="0">eactJS</tspan></text>
    </g>
    <g id="Group_10" data-name="Group 10" transform="translate(9 2.343)">
      <text id="AngularJS" transform="translate(29.37 275.53)" fill="#6b20a1" font-size="12" font-family="Baloo"><tspan x="0" y="0">Angula</tspan><tspan y="0" letter-spacing="-0.06em">r</tspan><tspan y="0">JS</tspan></text>
      <text id="AngularJS-2" data-name="AngularJS" transform="translate(28.91 274.53)" fill="#fff" font-size="12" font-family="Baloo"><tspan x="0" y="0">Angula</tspan><tspan y="0" letter-spacing="-0.06em">r</tspan><tspan y="0">JS</tspan></text>
    </g>
    <g id="Group_12" data-name="Group 12" transform="translate(1 1.472)">
      <text id="JS" transform="translate(350.689 94.49)" fill="#6b20a1" font-size="20" font-family="Baloo"><tspan x="0" y="0">JS</tspan></text>
      <text id="JS-2" data-name="JS" transform="translate(350.23 93.49)" fill="#fff" font-size="20" font-family="Baloo"><tspan x="0" y="0">JS</tspan></text>
    </g>
    <g id="Group_11" data-name="Group 11" transform="translate(6 4.041)">
      <text id="CSS3" transform="translate(378.99 281.38)" fill="#6b20a1" font-size="18" font-family="Baloo"><tspan x="0" y="0">CSS3</tspan></text>
      <text id="CSS3-2" data-name="CSS3" transform="translate(378.54 280.38)" fill="#fff" font-size="18" font-family="Baloo"><tspan x="0" y="0">CSS3</tspan></text>
    </g>
    <text id="Redux" transform="translate(292.42 34.45)" fill="#4a0c62" font-size="23" font-family="Baloo"><tspan x="0" y="0" letter-spacing="-0.01em">R</tspan><tspan y="0">edux</tspan></text>
    <text id="HTML5" transform="translate(33.31 100.37)" fill="#4a0c62" font-size="23" font-family="Baloo"><tspan x="0" y="0">H</tspan><tspan y="0" letter-spacing="-0.02em">T</tspan><tspan y="0">ML5</tspan></text>
    <rect id="Rectangle_88" data-name="Rectangle 88" width="85.73" height="34.82" rx="4.37" transform="translate(243.088 190.86) rotate(11.78)" fill="#a576ff"/>
    <rect id="Rectangle_89" data-name="Rectangle 89" width="53.06" height="6.6" transform="matrix(0.978, 0.21, -0.21, 0.978, 264.466, 201.215)" fill="#d2c0ff"/>
    <rect id="Rectangle_90" data-name="Rectangle 90" width="41.46" height="2.49" transform="matrix(0.978, 0.21, -0.21, 0.978, 262.492, 210.397)" fill="#d2c0ff"/>
    <rect id="Rectangle_91" data-name="Rectangle 91" width="47.59" height="2.49" transform="matrix(0.978, 0.21, -0.21, 0.978, 261.534, 214.848)" fill="#d2c0ff"/>
    <circle id="Ellipse_4" data-name="Ellipse 4" cx="5.89" cy="5.89" r="5.89" transform="translate(246.45 197.44)" fill="#ddd2ff"/>
    <path id="Path_293" data-name="Path 293" d="M291.83,270.25A28,28,0,0,1,293.6,277c.12,2.61-3.1,13.56,4.86,14.81s16.29-10.83,16.91-14.69-7.1-18.11-7.1-18.11l-14.62-2.26L286.4,269Z" transform="translate(-17.62 -72.75)" fill="#f4d3c9"/>
    <path id="Path_294" data-name="Path 294" d="M314.46,270.14v.05h0Z" transform="translate(-17.62 -72.75)" fill="#a56659"/>
    <path id="Path_295" data-name="Path 295" d="M314.49,270.19c-1.33-2.28-2.61-4.58-4-6.84.78,2.54,1.67,5,2.5,7.54v.08c.16.46.43,1,.6,1.5a11.471,11.471,0,0,1,.4,1.61,10.74,10.74,0,0,1,0,3.3,13.739,13.739,0,0,1-2.94,6,29.076,29.076,0,0,1-2.46,2.85,18.439,18.439,0,0,0,1.89-7.23,5.41,5.41,0,0,0,1.22-2.53,5.51,5.51,0,0,0-1.44-2.67,6.908,6.908,0,0,0-.75-.78l-.92-.81a15.479,15.479,0,0,1,2.11,4.25,5.25,5.25,0,0,1-1.11,2.06l-.12.14v.18c.09,3.3-1.94,7.42-2.91,9.21l-.34.28a14.12,14.12,0,0,1-2.9,1.74,9.181,9.181,0,0,1-3.17.86h0a18.911,18.911,0,0,0,4-6.79,19.15,19.15,0,0,0,1.19-5.68,3.62,3.62,0,0,0,1.2-2.38,4.67,4.67,0,0,0-.09-.81,6,6,0,0,0-1.93-3.33l-.18-.16a22.169,22.169,0,0,1,1.2,4.3,2.83,2.83,0,0,1-1,1.79l-.22.2v.29c0,.05.2,1.22-1.14,5.48a17.56,17.56,0,0,1-4.4,7.08,8.119,8.119,0,0,1-1.72-.39,3.8,3.8,0,0,1-.9-.51c1.37-1.69,5-6.65,4.84-11.91a3.51,3.51,0,0,0,1.14-3.12,3.65,3.65,0,0,0-1.64-2.36l-1.65-.71s2,2,2.32,3.3a2.52,2.52,0,0,1-1,2.3l-.19.16v.24c.22,4.88-3.23,9.72-4.56,11.41a4.63,4.63,0,0,1-.54-.77,12.88,12.88,0,0,1-1.05-6.54c.05-1.16.17-2.32.33-3.49l.13-.89a9.386,9.386,0,0,0,.12-1,5.91,5.91,0,0,0-.43-1.94c-.81-2.31-1.75-4.51-2.76-6.7.43,2.36.91,4.73,1.26,7.06l.2,1.58a5.265,5.265,0,0,1-.07.78l-.13.89a36.18,36.18,0,0,0-.35,3.64,14.45,14.45,0,0,0,1.26,7.44,5.91,5.91,0,0,0,3,2.73,8.94,8.94,0,0,0,3.91.52,10.85,10.85,0,0,0,3.72-1,16,16,0,0,0,3.23-1.95,26.121,26.121,0,0,0,5.16-5.29,24.763,24.763,0,0,0,2-3.11,11.371,11.371,0,0,0,1.24-3.64A11.9,11.9,0,0,0,314.49,270.19Z" transform="translate(-17.62 -72.75)" fill="#a56659"/>
    <path id="Path_296" data-name="Path 296" d="M274.11,187.22l-5.33,8.98,1.4.33Z" fill="#a56659"/>
    <path id="Path_297" data-name="Path 297" d="M317.55,192.91s-1.79-13.48-13.67-32c-16.34-25.51-43.6-43.5-76.32-31.06s-37.39,63.11-37.39,63.11h24.08l2.7-9.51,3.8,9.51h63l-2.79-17.78,9.19,17.78Z" transform="translate(-17.62 -72.75)" fill="#9fcc75"/>
    <path id="Path_298" data-name="Path 298" d="M195.73,192.91c2.64-28.85,16.62-52.94,16.77-53.2-19.19,19.12-22.33,53.2-22.33,53.2Z" transform="translate(-17.62 -72.75)" fill="#c7fc8d"/>
    <path id="Path_299" data-name="Path 299" d="M287.14,186.33s6.85,16,7.41,18.49-4.88,51.95-4.88,51.95,8.54,6.67,21.74,4.34c0,0,7.87-47,8.15-56S314,180.54,314,180.54Z" transform="translate(-17.62 -72.75)" fill="#9fcc75"/>
    <path id="Path_300" data-name="Path 300" d="M276.54,171.84c-.33-.68-1.34-9.83-1.34-9.83s-1.95,9.05-1.3,10.42a25.378,25.378,0,0,0,3.06,4s-4.59,10.24-7.34,12.29c-1.71,1.28-9.58,3-15.29,4.19h29.39l-2.79-17.78S276.86,172.53,276.54,171.84Z" transform="translate(-17.62 -72.75)" fill="#86ad5c"/>
    <path id="Path_301" data-name="Path 301" d="M317,190a95.885,95.885,0,0,0-3-9.45h0c-5.4-14.71-18.52-34.45-32.55-43.82.54.9,20.57,21.4,28.62,43.8,2.41,6.7,5.37,18.61,4.59,29.83l-7.49,43.33-8-1.32,7.83,4.38.43,4.8c.54,0,2.5-.22,3-.3l2.91-12.7C315.45,226.17,323.76,211.6,317,190Z" transform="translate(-17.62 -72.75)" fill="#c7fc8d"/>
    <path id="Path_302" data-name="Path 302" d="M319.69,203.86a45.1,45.1,0,0,0-.74-5.55,52.835,52.835,0,0,0-1.4-5.4,51.005,51.005,0,0,1,1.05,5.46,48.717,48.717,0,0,1,.46,5.52,46.207,46.207,0,0,1-.18,5.52,34.08,34.08,0,0,1-.91,5.39v.06l-3.22,18.89c-1.05,6.29-2.15,12.58-3.15,18.87a33.63,33.63,0,0,1-19.6-4.4c1.45-12.54,2.92-25.05,3.65-37.71a40.646,40.646,0,0,0,0-4.94,9,9,0,0,0-.59-2.55c-.29-.78-.58-1.55-.9-2.28-1.26-3-2.64-5.87-4-8.75-1.76-3.61-4.75-9.39-6.72-13.19a33.782,33.782,0,0,1-3-8.07v-.19a23.918,23.918,0,0,1-.78-4.08,33.172,33.172,0,0,1-.35-4.68l-.39-5.68-.83,5.36a28.429,28.429,0,0,0,.18,4.7,29.461,29.461,0,0,0,.94,4.63l1,3.44-3.61-2.39,4.59,4.85c2.53,5.33,5.09,10.63,7.5,16,1.31,2.9,2.6,5.82,3.75,8.76.29.74.55,1.47.79,2.2a7.152,7.152,0,0,1,.43,2.1c.07,1.45-.05,3.08-.13,4.64-.43,6.33-1.14,12.68-1.84,19s-1.45,12.68-2.22,19l-.58,4.75-.15,1.19-.07.59a2.7,2.7,0,0,0,.11,1.13,2.64,2.64,0,0,0,.55,1,5.734,5.734,0,0,0,.61.53c.34.27.68.52,1,.76a24.94,24.94,0,0,0,9.26,3.84,30.06,30.06,0,0,0,9.92.28h.31a1.248,1.248,0,0,0,.4-.06,2.63,2.63,0,0,0,1-.5,2.42,2.42,0,0,0,.68-.87,3.229,3.229,0,0,0,.25-.91l.35-2.37.69-4.74c.95-6.32,1.79-12.65,2.69-19l2.62-19v.07a35.162,35.162,0,0,0,.68-5.63,45.644,45.644,0,0,0-.1-5.59Zm-9.25,55.89c-.05.28,0,.22-.06.25s0,.05,0,.06h0l-.49.05a29.159,29.159,0,0,1-9.14-.35,22.319,22.319,0,0,1-8.31-3.48,7.689,7.689,0,0,1-1.23-1v-.06l.08-.59.15-1.19.38-3.11a35,35,0,0,0,17.21,4.34,22.866,22.866,0,0,0,2.32-.08l-.44,2.75Z" transform="translate(-17.62 -72.75)" fill="#287051"/>
    <path id="Path_303" data-name="Path 303" d="M240.29,192.91s-8.26-1.47-8.61-1.7S227,184.8,225.74,184s-15.49-8.89-15.49-8.89l5.37,6.62-9.33-2.15,4.64,5-2.24,8.25h5.56l2.86-9.12,3.64,9.12Z" transform="translate(-17.62 -72.75)" fill="#86ad5c"/>
    <path id="Path_304" data-name="Path 304" d="M220.75,192.91l-3.64-9.12-6.86-8.65,7.68,7.51a4.24,4.24,0,0,1,.91,1.3l4,9Z" transform="translate(-17.62 -72.75)" fill="#287051"/>
    <path id="Path_305" data-name="Path 305" d="M230.46,79.1s6.85-7,12.07-6.25S239,77.61,239,77.61s11.58-3.17,13.91-1.66-5,4-5,4,18.41-.26,26,21.09c8.67,24.36-6.8,48.87-6.8,48.87l-44.18,3.18s-13-12.19-18.84-33.8S214.81,86.85,220,86c0,0-7.14.15-6.62-2.08s11.39-1.54,11.39-1.54,2.76-8.06,6.85-9.48C234.61,71.83,230.46,79.1,230.46,79.1Z" transform="translate(-17.62 -72.75)" fill="#995f52"/>
    <path id="Path_306" data-name="Path 306" d="M217.87,122.33c-.7,7.81-.22,16.19,3.65,27.29a68.83,68.83,0,0,0,8.69,16.21c9.55,13.71,19.25,15.57,24.56,14.43,6.11-1.31,19.73-12.69,14.85-47,0,0-3.82-37.28-32.53-30.82C221.64,105.93,218.74,112.6,217.87,122.33Z" transform="translate(-17.62 -72.75)" fill="#f4d3c9"/>
    <path id="Path_307" data-name="Path 307" d="M270.78,143.47s.69-11.75,4.47-13.48,3.67,8.64,1,16.31-6.6,4.53-6.6,4.53Z" transform="translate(-17.62 -72.75)" fill="#f4d3c9"/>
    <path id="Path_308" data-name="Path 308" d="M270.78,143.47s.69-11.75,4.47-13.48,3.67,8.64,1,16.31-6.6,4.53-6.6,4.53Z" transform="translate(-17.62 -72.75)" fill="#f4d3c9"/>
    <path id="Path_309" data-name="Path 309" d="M273,123.62l-3.41-1.35c0-4-.31-8-.31-8s-4.92-21.83-25.19-22.73c-19.9-.88-34.6,14.89-28,33.14L214,121.44l-3.11,1.62v7.8l11.94,21.73L219,130.23a15,15,0,0,0,8.14-6.68,11.53,11.53,0,0,0,7.24-1.68s-.23,5,4.5,3.83S249,113.55,249,113.55s-.66,12.83,3.86,11,5.64-11.25,5.64-11.25,6,14.34,8.93,16.41L270.38,146Z" transform="translate(-17.62 -72.75)" fill="#995f52"/>
    <path id="Path_310" data-name="Path 310" d="M275.33,106a44.051,44.051,0,0,0-1.43-5c-7.6-21.35-26-21.09-26-21.09s7.3-2.53,5-4-13.9,1.7-13.9,1.7,8.79-4,3.58-4.76-12.07,6.25-12.07,6.25,4.15-7.27,1.19-6.25c-4.09,1.42-6.85,9.48-6.85,9.48s-10.88-.7-11.39,1.54S220,86,220,86c-5.22.9-21.76,11.78-15.95,33.38q.51,1.88,1.08,3.66c.32-9.15,3-26.5,18.71-31.54,0,0-5.8-1.29-4.63-2.5s8.32,1.21,8.32,1.21,4.37-9.7,6.6-10.3-1.42,5.45-1.42,5.45S239.3,79,242,79.82s-4,6.1-4,6.1S263.69,79.66,275.33,106Z" transform="translate(-17.62 -72.75)" fill="#e28171"/>
    <path id="Path_311" data-name="Path 311" d="M270.78,143.47s.66-11.22,4.22-13.34a56.218,56.218,0,0,0,1.46-10.51c-3.65,1.84-5.8-4.34-5.8-4.34s-1.05,5.2-2.56,5.2-9.2-6.71-9.2-6.71v.62c.43,1,5.83,13.34,8.5,15.34l2.93,16.41Z" transform="translate(-17.62 -72.75)" fill="#5b2e28" opacity="0.53"/>
    <path id="Path_312" data-name="Path 312" d="M206.29,126.26s4,5.83,6,5a7.77,7.77,0,0,0,2.48-1.34,5,5,0,0,0,4.28.28l3.88,22.9s-4.45-10.74-9-11.5C213.89,141.63,208.5,133.19,206.29,126.26Z" transform="translate(-17.62 -72.75)" fill="#5b2e28" opacity="0.53"/>
    <path id="Path_313" data-name="Path 313" d="M222.92,153.13s-5.33-12.83-10.29-11.45c-6,1.68,5,22,14.93,18.84Z" transform="translate(-17.62 -72.75)" fill="#f4d3c9"/>
    <path id="Path_314" data-name="Path 314" d="M232,145.44s3.52-1.89,6.43,0C238.42,145.44,235.27,139.62,232,145.44Z" transform="translate(-17.62 -72.75)" fill="#c18678"/>
    <path id="Path_315" data-name="Path 315" d="M260.07,138.38s-4,.12-5.56,3.22C254.51,141.6,254.32,135,260.07,138.38Z" transform="translate(-17.62 -72.75)" fill="#c18678"/>
    <path id="Path_316" data-name="Path 316" d="M251.07,163l-5.16-16.86-4.27-4.56a.32.32,0,0,0-.54.3l3,10.71.18,4S248.61,164.52,251.07,163Z" transform="translate(-17.62 -72.75)" fill="#c18678" opacity="0.64"/>
    <path id="Path_317" data-name="Path 317" d="M244.31,156.59s4.19,8.38,6.78,7.54,2.77-9.64,2.77-9.64-2,7.13-3.52,7.29S244.31,156.59,244.31,156.59Z" transform="translate(-17.62 -72.75)" fill="#a56659"/>
    <path id="Path_318" data-name="Path 318" d="M248.19,169.24a11.54,11.54,0,0,0,3.45-.57,10.28,10.28,0,0,0,2.9-1.52,14.1,14.1,0,0,0,2.3-2.39c.34-.45.64-.94,1-1.41s.59-1,.92-1.51l.17-.27h.17a17.143,17.143,0,0,1,1.73.36,14.8,14.8,0,0,1-1.73.37l.35-.24c-.15.6-.31,1.21-.51,1.8a15,15,0,0,1-.82,1.72,8.539,8.539,0,0,1-1.13,1.55,6.545,6.545,0,0,1-.68.71l-.77.62a7.71,7.71,0,0,1-3.64,1.39,6.33,6.33,0,0,1-3.71-.61Z" transform="translate(-17.62 -72.75)" fill="#824d46"/>
    <path id="Path_319" data-name="Path 319" d="M275.33,136.71s-2.9,4-2.81,5.63a11,11,0,0,0,1.41,3.8,78.742,78.742,0,0,1,1.4-9.43Z" transform="translate(-17.62 -72.75)" fill="#c18678"/>
    <path id="Path_320" data-name="Path 320" d="M216.17,149.49s4.59,1.9,5.35,3.31a11.19,11.19,0,0,1,.8,4,77.232,77.232,0,0,0-6.15-7.31Z" transform="translate(-17.62 -72.75)" fill="#c18678"/>
    <path id="Path_321" data-name="Path 321" d="M225.21,141.17l11-4a1,1,0,0,0,.34-1.63,8.51,8.51,0,0,0-8-2c-4.41,1-4.75,4.77-4.61,6.76a1,1,0,0,0,1.27.87Z" transform="translate(-17.62 -72.75)" fill="#63342d"/>
    <path id="Path_322" data-name="Path 322" d="M251.54,132.8l12.47-.6a1,1,0,0,0,.87-1.35c-.62-1.46-2.26-3.68-6.54-4.08a7.66,7.66,0,0,0-7.72,4.59,1,1,0,0,0,.92,1.44Z" transform="translate(-17.62 -72.75)" fill="#63342d"/>
    <path id="Path_323" data-name="Path 323" d="M237.82,155.5h-4.88S235.46,153.13,237.82,155.5Z" transform="translate(-17.62 -72.75)" fill="#a56659"/>
    <path id="Path_324" data-name="Path 324" d="M259.7,150.79l4.68-2.24S260.73,147,259.7,150.79Z" transform="translate(-17.62 -72.75)" fill="#a56659"/>
    <path id="Path_325" data-name="Path 325" d="M234.14,151.68c.75,2.53,2.46,4.25,3.81,3.85s1.84-2.78,1.08-5.31-2.46-4.26-3.81-3.85S233.38,149.15,234.14,151.68Z" transform="translate(-17.62 -72.75)" fill="#3f302e"/>
    <path id="Path_326" data-name="Path 326" d="M256.33,146.71c.52,2.53,2,4.36,3.37,4.08s2-2.55,1.49-5.08-2-4.36-3.38-4.09S255.8,144.18,256.33,146.71Z" transform="translate(-17.62 -72.75)" fill="#3f302e"/>
    <path id="Path_327" data-name="Path 327" d="M258.52,106.38a27.79,27.79,0,0,1-.8,8.15,20.33,20.33,0,0,1-3,7.26,3.42,3.42,0,0,1-2.42,1.6c-.28,0-.45-.14-.73-.5a5.14,5.14,0,0,1-.63-1.49,26.571,26.571,0,0,1-.56-7.77l.4-7.84L247.7,113a32.5,32.5,0,0,1-4.08,7,21,21,0,0,1-2.69,3,9.55,9.55,0,0,1-3.14,2c-1.11.31-1.7.11-2.09-1a7.43,7.43,0,0,1,0-3.75,18.32,18.32,0,0,1,4-7.21,16,16,0,0,0-5.34,6.8,5.1,5.1,0,0,0-.45,1.68,13.1,13.1,0,0,1-4.64,1.65,5.18,5.18,0,0,1-2.32-.14,1.57,1.57,0,0,1-1-1.47,3.8,3.8,0,0,1,.72-2,19.589,19.589,0,0,1,1.53-2.06c1.14-1.32,2.38-2.6,3.64-3.9a20.46,20.46,0,0,0-4.43,3.14,13.73,13.73,0,0,0-1.86,2.08,4.92,4.92,0,0,0-1,2.91,3.15,3.15,0,0,0,.56,1.59,2.89,2.89,0,0,0,1.4,1l-.69-.35a13.59,13.59,0,0,1-4,4.2,12.051,12.051,0,0,1-3,1.52,4.83,4.83,0,0,1-3,.14,1.49,1.49,0,0,1-.94-.68,2,2,0,0,1,0-1.28,10.86,10.86,0,0,1,1.42-3,63.008,63.008,0,0,1,4.19-5.66,26.4,26.4,0,0,0-5.1,5,10.529,10.529,0,0,0-1.81,3.28,3.28,3.28,0,0,0,.07,2.2,2.73,2.73,0,0,0,1.76,1.44,6,6,0,0,0,3.91-.22,11.76,11.76,0,0,0,3.2-1.89,21.109,21.109,0,0,0,4.26-4.7,5.77,5.77,0,0,0,2.75-.08,15,15,0,0,0,4.34-1.91,8.439,8.439,0,0,0,.09,2.12,3.47,3.47,0,0,0,1.59,2.36,4,4,0,0,0,2.83.33,10.48,10.48,0,0,0,4.21-2.21,22.76,22.76,0,0,0,3.19-3.17,29.389,29.389,0,0,0,2-2.84,16.21,16.21,0,0,0,.67,3.34,7.32,7.32,0,0,0,1.13,2.25,4.06,4.06,0,0,0,1.14,1,3.23,3.23,0,0,0,1.62.41,4.27,4.27,0,0,0,2.63-1,7.44,7.44,0,0,0,1.61-1.83,19.66,19.66,0,0,0,2.53-8.28A22.25,22.25,0,0,0,258.52,106.38Z" transform="translate(-17.62 -72.75)" fill="#4c2521"/>
    <path id="Path_328" data-name="Path 328" d="M220.39,100.72s-8,8.12-7.91,12,11.6-4.34,11.6-4.34-9.08,4.4-8.69,2.3C215.87,108,220.39,100.72,220.39,100.72Z" transform="translate(-17.62 -72.75)" fill="#5b2e28" opacity="0.71"/>
    <path id="Path_329" data-name="Path 329" d="M233.43,100.47s-3.12,7.89-1,9.35S242.8,99.64,242.8,99.64s-8.14,8.16-9.16,7.35S233.43,100.47,233.43,100.47Z" transform="translate(-17.62 -72.75)" fill="#5b2e28" opacity="0.71"/>
    <path id="Path_330" data-name="Path 330" d="M234.53,150.11c.19.93.73,1.6,1.2,1.51s.69-.93.5-1.86-.73-1.6-1.2-1.5S234.34,149.18,234.53,150.11Z" transform="translate(-17.62 -72.75)" fill="#fff"/>
    <path id="Path_331" data-name="Path 331" d="M256.86,145.24c.13.93.62,1.64,1.1,1.57s.75-.88.61-1.82-.62-1.65-1.1-1.58S256.72,144.3,256.86,145.24Z" transform="translate(-17.62 -72.75)" fill="#fff"/>
    <path id="Path_332" data-name="Path 332" d="M209.35,88.11l-3.1-5.68,1.55,5.68Z" fill="#c18678" opacity="0.66"/>
    <path id="Path_333" data-name="Path 333" d="M270.53,151.29v-4.54l1.54,4.71A1.82,1.82,0,0,1,270.53,151.29Z" transform="translate(-17.62 -72.75)" fill="#c18678" opacity="0.66"/>
    <path id="Path_334" data-name="Path 334" d="M252.32,177.87c-9.66,1.08-23.9-15-24.63-15.86.77,1.24,1.6,2.51,2.52,3.82,9.55,13.71,19.25,15.57,24.56,14.43,3.31-.71,8.84-4.4,12.42-13.09C267.05,167.44,262.09,176.79,252.32,177.87Z" transform="translate(-17.62 -72.75)" fill="#fff3d7"/>
    <path id="Path_335" data-name="Path 335" d="M217.92,144.52c-1.63-2-3.48-3.34-5.29-2.84-2.81.79-1.89,5.66.9,10.3l.72,1.12h0c0-.09-3.17-7.1-1.42-9S217.92,144.52,217.92,144.52Z" transform="translate(-17.62 -72.75)" fill="#fff3d7"/>
    <path id="Path_336" data-name="Path 336" d="M275.25,130a5.81,5.81,0,0,0-2.46,3.24c.26-.23,2.38-2.09,3.67-1.66.88.29,1.33,4,1.54,6.72C278.56,133.07,277.77,128.84,275.25,130Z" transform="translate(-17.62 -72.75)" fill="#fff3d7"/>
    <path id="Path_337" data-name="Path 337" d="M178.36,190.32a29.32,29.32,0,0,1,21-4.59,4.08,4.08,0,0,1,3.53,3.82c.14,4.7.9,10.91-.44,13.62-1.84,3.77-12,7.36-15.44,6.18S175.65,192,178.36,190.32Z" transform="translate(-17.62 -72.75)" fill="#f4d3c9"/>
    <path id="Path_338" data-name="Path 338" d="M202.84,188.89c-.14,2.31-.16,5.89-.5,8.14a28.192,28.192,0,0,1-.33,3.34,9.34,9.34,0,0,1-.95,3,6.17,6.17,0,0,1-.56.81c-.11-.8-.22-1.59-.35-2.38-.24-1.48-.53-3-.86-4.41a57.12,57.12,0,0,0-2.56-8.54,56.421,56.421,0,0,1,1.16,8.74c.09,1.47.14,2.93.14,4.39s0,2.94-.12,4.34h.18a15.73,15.73,0,0,1-1.78,1l-.39-.17-5.24-15.54a.12.12,0,0,0-.23.06l3,16.8a3.4,3.4,0,0,1-1,.37l-.72.11a16.53,16.53,0,0,1-2.48-3.95c-.7-1.47-1.32-3-2-4.48a49.05,49.05,0,0,1-2-4.51c-.61-1.54-1.11-3.12-1.57-4.72.23,1.65.5,3.3.89,4.92a52.868,52.868,0,0,0,3.21,9.58c.44,1,.9,1.91,1.41,2.86a.27.27,0,0,1-.27.4,4.19,4.19,0,0,1-2-.6,8.42,8.42,0,0,1-2.18-2.26,53.09,53.09,0,0,1-3.38-5.88,31.349,31.349,0,0,1-2.42-6.27,15.173,15.173,0,0,1-.48-1.6l-.19-.81a1.29,1.29,0,0,1,.05-.64,3,3,0,0,1,1-1.22,7,7,0,0,1,1.42-.94,4.85,4.85,0,0,0-3.05,1.84,2.06,2.06,0,0,0-.29,1v.91a12.956,12.956,0,0,0,.17,1.75h0a31.921,31.921,0,0,0,2.51,6.55,54,54,0,0,0,3.5,6.06,9.57,9.57,0,0,0,2.58,2.66,5.58,5.58,0,0,0,1.84.71,8.519,8.519,0,0,0,1.87.12,17.79,17.79,0,0,0,6.9-1.81,15.739,15.739,0,0,0,3.68-2.4h.31a2.3,2.3,0,0,1,0-.26,9.9,9.9,0,0,0,1.58-2,10.61,10.61,0,0,0,1.1-3.5,34.731,34.731,0,0,0,.37-3.49h0A67.439,67.439,0,0,0,202.84,188.89Z" transform="translate(-17.62 -72.75)" fill="#a56659"/>
  </g>
</svg>
