<svg xmlns="http://www.w3.org/2000/svg" xmlns:xlink="http://www.w3.org/1999/xlink" width="491.312" height="325.365" viewBox="0 0 491.312 325.365">
  <defs>
    <linearGradient id="linear-gradient" y1="0.5" x2="1" y2="0.5" gradientUnits="objectBoundingBox">
      <stop offset="0" stop-color="#9ebed0"/>
      <stop offset="1" stop-color="#688bb6"/>
    </linearGradient>
    <clipPath id="clip-path">
      <rect x="312" y="19" width="491.312" height="325.365" fill="none"/>
    </clipPath>
    <linearGradient id="linear-gradient-2" x1="-0.326" y1="1.485" x2="0.981" gradientUnits="objectBoundingBox">
      <stop offset="0" stop-color="#cfcae6"/>
      <stop offset="0.552" stop-color="#cacdf6"/>
      <stop offset="1" stop-color="#812cd2"/>
    </linearGradient>
    <clipPath id="clip-path-2">
      <path id="Path_352" data-name="Path 352" d="M571.52,256.08l6.38,4.25s23.39,0,42.52,8.51c0,0,0,172.23-17,193.5,0,0-95.68-4.25-134-40.4,0,0-13.08-126.32,31.39-157.45,10.16-7.11,49.41-4.16,49.41-4.16Z" fill="#e9b041"/>
    </clipPath>
    <linearGradient id="linear-gradient-3" y1="0.5" x2="1" y2="0.5" gradientUnits="objectBoundingBox">
      <stop offset="0" stop-color="#9ebed0"/>
      <stop offset="1" stop-color="#5320a1"/>
    </linearGradient>
    <clipPath id="clip-path-3">
      <path id="Path_356" data-name="Path 356" d="M563.44,390.47l-34.25-84.62a7.52,7.52,0,0,0-7-4.69H377.88a5.25,5.25,0,0,0-4.84,7.3l39.42,92.64H620.85l-2-7.47Z" fill="url(#linear-gradient)"/>
    </clipPath>
    <linearGradient id="linear-gradient-4" x1="0" y1="0.5" x2="1" y2="0.5" xlink:href="#linear-gradient"/>
    <linearGradient id="linear-gradient-5" x1="0.831" y1="0.17" x2="0.5" y2="1" gradientUnits="objectBoundingBox">
      <stop offset="0" stop-color="#8c34eb"/>
      <stop offset="0.163" stop-color="#8c34eb"/>
      <stop offset="0.301" stop-color="#812cd2"/>
      <stop offset="0.482" stop-color="#6b20a1"/>
      <stop offset="0.557" stop-color="#5f188e"/>
      <stop offset="0.795" stop-color="#4a0c62"/>
      <stop offset="1" stop-color="#40054e"/>
      <stop offset="1" stop-color="#3d0448"/>
    </linearGradient>
    <clipPath id="clip-path-4">
      <path id="Path_361" data-name="Path 361" d="M546.18,220.77s7.35,19.09-9.42,39.26c0,0,.29,12.66,19.67,18s37.24-15.8,37.24-15.8-18.78-13.41-6.54-57.76Z" fill="#814146"/>
    </clipPath>
    <linearGradient id="linear-gradient-6" y1="0.5" x2="1" y2="0.5" gradientUnits="objectBoundingBox">
      <stop offset="0" stop-color="#c75265"/>
      <stop offset="1" stop-color="#ba3c78"/>
    </linearGradient>
  </defs>
  <g id="banner-image" transform="translate(-312 -19)" clip-path="url(#clip-path)" style="isolation: isolate">
    <path id="Path_344" data-name="Path 344" d="M419.285,141.556c0,2.15,69.685,60.054-61.525,267.264H777.213L639.519,101.514Z" transform="translate(-27.24 -81.975)" opacity="0.78" fill="url(#linear-gradient-2)"/>
    <path id="Path_345" data-name="Path 345" d="M481.83,207.7a103.386,103.386,0,0,0-18.89,1.67,13.745,13.745,0,0,0-1-1.25c-3.23-3.65-7.72-5-10-2.92-1.32,1.17-1.62,3.2-1,5.4-.34-.08-.69-.14-1-.19-3.83-.53-7.29.57-8.78,2.55a27.5,27.5,0,0,0-9.9-6.24,28.13,28.13,0,0,0-9.7-1.8c3.66-14.34-.45-27.78-9.5-30.41-7.12-2.08-15.25,3.13-20.63,12.3-2.63-1.57-5.35-1.94-7.46-.73-3.59,2.08-4.09,8.07-1.34,13.85-1.39-.13-2.81-.2-4.25-.2-15.49,0-28,7.89-28,17.64a11.638,11.638,0,0,0,.09,1.45H521.23C517,212.44,501,207.7,481.83,207.7Z" transform="translate(-27.24 -81.975)" fill="#fff" opacity="0.27"/>
    <path id="Path_346" data-name="Path 346" d="M628.15,246.08c.19-4.52,16.08-7.88,35.59-7.49h.15a24.7,24.7,0,0,1,43.77-17.88,11.23,11.23,0,0,1,12.57,3.42c2.4-1.93,5.16-2.59,7.29-1.44,1.74.94,2.69,2.89,2.83,5.24a13.139,13.139,0,0,1,3.74-.48,12.74,12.74,0,0,1,11.84,8.77A11.22,11.22,0,0,1,763.32,244a14.271,14.271,0,0,1,3.64-.39c5.51.1,9.92,3.21,9.85,6.93v.52H602.1C602.2,248.45,613.21,246.46,628.15,246.08Z" transform="translate(-27.24 -81.975)" fill="#fff" opacity="0.27"/>
    <path id="Path_347" data-name="Path 347" d="M441.37,106.93c.13-3.29,11.66-5.72,25.81-5.44h.11a16.569,16.569,0,0,1-.07-2A17.91,17.91,0,0,1,499,88.56a8.14,8.14,0,0,1,9.12,2.49c1.73-1.41,3.74-1.89,5.28-1a4.38,4.38,0,0,1,2,3.8,9.36,9.36,0,0,1,2.72-.35,9.23,9.23,0,0,1,8.59,6.36,8.14,8.14,0,0,1,12.61,5.62,10.239,10.239,0,0,1,2.64-.28c4,.08,7.2,2.33,7.14,5v.38H422.47C422.54,108.65,430.53,107.2,441.37,106.93Z" transform="translate(-27.24 -81.975)" fill="#fff" opacity="0.27"/>
    <path id="Path_348" data-name="Path 348" d="M851.23,386.4a30.87,30.87,0,0,0-7.88.86,24.3,24.3,0,0,0-37.64-16.79A27.56,27.56,0,0,0,772,352.55c-.28-5.09-2.35-9.33-6.11-11.36-4.61-2.49-10.59-1.05-15.77,3.13a24.3,24.3,0,0,0-27.22-7.4A53.45,53.45,0,0,0,628.11,366c-2.77.43-5.49.89-8.15,1.4a39.05,39.05,0,0,0-2.89-3.67c-9.51-10.73-22.7-14.58-29.46-8.59-3.88,3.44-4.79,9.39-3.05,15.87-1-.22-2-.4-3.06-.55-11.25-1.56-21.43,1.66-25.81,7.51a80.5,80.5,0,0,0-29.12-18.35A82.491,82.491,0,0,0,498,354.3c10.79-42.18-1.3-81.71-27.93-89.46-20.94-6.09-44.84,9.23-60.66,36.18-7.74-4.61-15.76-5.69-21.94-2.13-10.58,6.11-12.05,23.72-4,40.72-4.07-.39-8.25-.59-12.5-.59-45.53,0-82.43,23.23-82.43,51.88a33.494,33.494,0,0,0,.27,4.26H511.28c-10.48,1.91-16.81,4.46-16.92,7.38H872.44a10.56,10.56,0,0,0,.11-1.13C872.71,393.36,863.17,386.64,851.23,386.4Z" transform="translate(-27.24 -81.975)" fill="#fff" opacity="0.27"/>
    <path id="Path_349" data-name="Path 349" d="M571.52,256.08l6.38,4.25s23.39,0,42.52,8.51c0,0,0,172.23-17,193.5,0,0-95.68-4.25-134-40.4,0,0-13.08-126.32,31.39-157.45,10.16-7.11,49.41-4.16,49.41-4.16Z" transform="translate(-27.24 -81.975)" fill="#e9b041"/>
    <g id="Group_15" data-name="Group 15" transform="translate(-27.24 -81.975)" clip-path="url(#clip-path-2)">
      <path id="Path_350" data-name="Path 350" d="M518.3,256.08s6.41,26.36,38.13,21.91h0l5.85-6.39-.23,7.24s55.2,14.1,51.32-14.35S517,220.51,518.3,256.08Z" fill="#e09638"/>
      <path id="Path_351" data-name="Path 351" d="M615.87,311.31s-12,19.5-10,31.54c3.59,21.51,10,23.66,7.89,28.68s0,12.91,0,12.91l20.08-10.76,3.58-41.58S624.48,304.85,615.87,311.31Z" fill="#e09638"/>
    </g>
    <path id="Path_353" data-name="Path 353" d="M638.39,366.39S630.32,354,621.84,339c11.1-12,27.21-12.83,34.45-12.51C664,345.18,670.86,365.67,674.1,383c0,0-10.2,28.06-116.06,15.3l-7.65-16.58S616.71,377.86,638.39,366.39Z" transform="translate(-27.24 -81.975)" fill="#e5c1c3"/>
    <path id="Path_354" data-name="Path 354" d="M563.44,390.47l-34.25-84.62a7.52,7.52,0,0,0-7-4.69H377.88a5.25,5.25,0,0,0-4.84,7.3l39.42,92.64H620.85l-2-7.47Z" transform="translate(-27.24 -81.975)" fill="url(#linear-gradient-3)"/>
    <g id="Group_16" data-name="Group 16" transform="translate(-27.24 -81.975)" clip-path="url(#clip-path-3)">
      <path id="Path_355" data-name="Path 355" d="M564.25,381.57c0,.72-.72,8.6-.72,8.6l10,22.95,36.57,5L629.5,406l-4.31-15.06-14.34-7.17Z" opacity="0.56" fill="url(#linear-gradient-4)"/>
    </g>
    <path id="Path_357" data-name="Path 357" d="M542.21,261.71c5.49,6.65,13.19,12.93,22.1,13.7,10.12.88,19.09-4.83,27.19-10.12.62-.41,0-1.4-.58-1-7.47,4.88-15.56,10.18-24.85,10.06S548.72,267.8,543,260.9c-.47-.57-1.28.25-.81.81Z" transform="translate(-27.24 -81.975)" fill="#637dd1"/>
    <rect id="Rectangle_96" data-name="Rectangle 96" width="692.6" height="63.33" transform="translate(0 316.805)" fill="url(#linear-gradient-5)"/>
    <path id="Path_359" data-name="Path 359" d="M546.18,220.77s7.35,19.09-9.42,39.26c0,0,.29,12.66,19.67,18s37.24-15.8,37.24-15.8-18.78-13.41-6.54-57.76Z" transform="translate(-27.24 -81.975)" fill="#e5c1c3"/>
    <g id="Group_17" data-name="Group 17" transform="translate(-27.24 -81.975)" clip-path="url(#clip-path-4)">
      <path id="Path_360" data-name="Path 360" d="M540.94,230.21s27.16,5.18,33.63-17.46C579.57,195.24,525.42,188.18,540.94,230.21Z" fill="#814146" opacity="0.44"/>
    </g>
    <path id="Path_362" data-name="Path 362" d="M590.3,200.18s9.93,6.23,14.74-3.6-4.35-13-4.35-13,11.58-7.71,7.14-22.1-20.47-12.72-23.14-9.66c0,0-4.1-13.55-13.49-16.08s-11.58,7.71-11.58,7.71S547.47,125.88,531.55,129s-22.57,24-8.88,34.61c0,0-8.5,2-6.63,12.56s24,14.21,24,14.21S572.14,217,590.3,200.18Z" transform="translate(-27.24 -81.975)" fill="#25293a"/>
    <path id="Path_363" data-name="Path 363" d="M580.83,209.51s17-.59,14.9-14c-1.81-11.82-11.33-5.19-16.22,4a2.1,2.1,0,0,1-3.77-.15c-1.76-3.93-3.69-9.95-1.46-14.24,1.56-3,.56-5.62-.95-8A23.36,23.36,0,0,0,555,166.31c-9.72-.62-21.27.58-24.06,9.11,0,0-10.45,36.73,8.48,48.12S580.83,209.51,580.83,209.51Z" transform="translate(-27.24 -81.975)" fill="#e5c1c3"/>
    <path id="Path_364" data-name="Path 364" d="M553.85,189.72c-.31,2.47-1.27,4.38-2.15,4.27s-1.35-2.2-1-4.67,1.27-4.37,2.15-4.26S554.16,187.26,553.85,189.72Z" transform="translate(-27.24 -81.975)" fill="#1f221d"/>
    <path id="Path_365" data-name="Path 365" d="M538.47,188.18c-.31,2.47-1.27,4.38-2.15,4.27s-1.35-2.2-1-4.67,1.27-4.38,2.15-4.26S538.78,185.71,538.47,188.18Z" transform="translate(-27.24 -81.975)" fill="#1f221d"/>
    <path id="Path_366" data-name="Path 366" d="M540.67,209.76a24.22,24.22,0,0,0,12.46-3.15s2.27,7.91-4.55,9.24S540.67,209.76,540.67,209.76Z" transform="translate(-27.24 -81.975)" fill="#f5ede5"/>
    <path id="Path_367" data-name="Path 367" d="M551.76,200a9.8,9.8,0,0,1-4.73-4.43,15.24,15.24,0,0,1,3-17.87,8.92,8.92,0,0,1,14.39,2.44,15.24,15.24,0,0,1-3,17.87,9.3,9.3,0,0,1-7.83,2.52A8.74,8.74,0,0,1,551.76,200Zm7.72-23.7a7.7,7.7,0,0,0-1.7-.49,8.67,8.67,0,0,0-7.29,2.37,14.59,14.59,0,0,0-2.9,17.08,8.29,8.29,0,0,0,13.4,2.27,14.59,14.59,0,0,0,2.9-17.08,9.18,9.18,0,0,0-4.41-4.16Z" transform="translate(-27.24 -81.975)" fill="#8097ee"/>
    <path id="Path_368" data-name="Path 368" d="M529.31,200.37a9.8,9.8,0,0,1-4.73-4.43,15.24,15.24,0,0,1,3-17.87A8.92,8.92,0,0,1,542,180.51a15.24,15.24,0,0,1-3,17.87,9.3,9.3,0,0,1-7.83,2.52,8.739,8.739,0,0,1-1.86-.53Zm7.71-23.7a8,8,0,0,0-1.69-.49,8.7,8.7,0,0,0-7.29,2.37,14.59,14.59,0,0,0-2.9,17.08,8.27,8.27,0,0,0,13.4,2.27,14.59,14.59,0,0,0,2.9-17.08,9.15,9.15,0,0,0-4.44-4.15Z" transform="translate(-27.24 -81.975)" fill="#8097ee"/>
    <rect id="Rectangle_97" data-name="Rectangle 97" width="0.64" height="19.58" transform="translate(538.385 105.374) rotate(-68.69)" fill="#8097ee"/>
    <path id="Path_369" data-name="Path 369" d="M543.4,185.19l-.48-.43a2.38,2.38,0,0,1,1.82-.94,2.45,2.45,0,0,1,1.7.88l-.5.4a1.92,1.92,0,0,0-1.22-.64,1.81,1.81,0,0,0-1.32.73Z" transform="translate(-27.24 -81.975)" fill="#8097ee"/>
    <path id="Path_370" data-name="Path 370" d="M557.75,278.07s34.6-13.88,28.62-26.67c0,0,18.59-1.92,22.47,13.34S567.67,284.64,557.75,278.07Z" transform="translate(-27.24 -81.975)" fill="#e9b041"/>
    <path id="Path_371" data-name="Path 371" d="M557.75,278.07s-22.41-12.94-18-22c0,0,2.94-3.49,3.36-5.63,0,0-5.4,1.1-8,3.69s-9.7,1.85-9.7,4.8S537.06,282,557.75,278.07Z" transform="translate(-27.24 -81.975)" fill="#e9b041"/>
    <path id="Path_372" data-name="Path 372" d="M657.54,321.8h0c-10.45-22-24.3-43.55-29.35-48.51-12.23-12-16.11,5.43-16.11,5.43s-6.85-4.16-9.4,12.42c-.73,4.76,1.52,14.92,5.29,26.05-1.1.6-1.71,1-1.71,1s12.31,39.6,30.08,49.23c0,0,9.36,48.42,39.76,16.09C676.1,383.48,672,348.06,657.54,321.8Z" transform="translate(-27.24 -81.975)" fill="#e9b041"/>
    <path id="Path_373" data-name="Path 373" d="M624.14,371.56s3.46-8.13,12.51-5.54,9.7,14.87,18.11,19.4,9,9.7,0,12.93S632.32,388.09,624.14,371.56Z" transform="translate(-27.24 -81.975)" fill="#e09638"/>
    <path id="Path_374" data-name="Path 374" d="M456.7,345.79a5.71,5.71,0,0,1,.8-2.9h-.8a8.61,8.61,0,1,0,8.61,8.61v-.8a5.67,5.67,0,0,1-8.57-4.87Z" transform="translate(-27.24 -81.975)" fill="#fff"/>
    <ellipse id="Ellipse_6" data-name="Ellipse 6" cx="10.04" cy="12.91" rx="10.04" ry="12.91" transform="translate(552.06 102.425)" fill="url(#linear-gradient-6)"/>
    <ellipse id="Ellipse_7" data-name="Ellipse 7" cx="8.96" cy="11.52" rx="8.96" ry="11.52" transform="translate(554.22 103.765)" fill="#812cd2"/>
    <path id="Path_375" data-name="Path 375" d="M580.45,143.17s15.35,29.76,6.74,46.25h5.17s8.76-21.91,0-39.64C592.36,149.78,588,139.22,580.45,143.17Z" transform="translate(-27.24 -81.975)" fill="#812cd2"/>
    <path id="Path_376" data-name="Path 376" d="M564.44,222.41a50.68,50.68,0,0,1-8.93-.74l.27-1.41c.19,0,18.61,3.45,28.35-5.18,4.48-4,6.48-9.94,5.93-17.72l1.43-.1c.58,8.25-1.58,14.61-6.41,18.89-5.39,4.78-13.16,6-18.73,6.22C565.7,222.4,565.06,222.41,564.44,222.41Z" transform="translate(-27.24 -81.975)" fill="#4d40bb"/>
    <path id="Path_377" data-name="Path 377" d="M557.8,221c0,1.19-1.93,2.15-4.3,2.15s-4.31-1-4.31-2.15,1.93-2.15,4.31-2.15S557.8,219.78,557.8,221Z" transform="translate(-27.24 -81.975)" fill="#25293a"/>
    <ellipse id="Ellipse_8" data-name="Ellipse 8" cx="6.65" cy="8.55" rx="6.65" ry="8.55" transform="translate(556.529 106.735)" fill="#574fc6"/>
  </g>
</svg>
