<svg xmlns="http://www.w3.org/2000/svg" xmlns:xlink="http://www.w3.org/1999/xlink" width="964.494" height="536.35" viewBox="0 0 964.494 536.35">
  <defs>
    <clipPath id="clip-path">
      <rect y="-22" width="964.494" height="536.35" fill="none"/>
    </clipPath>
  </defs>
  <g id="home-banner" transform="translate(0 22)" clip-path="url(#clip-path)" style="isolation: isolate">
    <ellipse id="Ellipse_1" data-name="Ellipse 1" cx="24" cy="29.5" rx="24" ry="29.5" transform="translate(374.446 25)" fill="#f8f8f8"/>
    <circle id="Ellipse_2" data-name="Ellipse 2" cx="12.5" cy="12.5" r="12.5" transform="translate(422.446)" fill="#c291ff"/>
    <g id="Group_7" data-name="Group 7" transform="translate(758.258 94.891)">
      <path id="Path_265" data-name="Path 265" d="M56.23,16.647c-1.439-.021-2.889-.021-4.328,0a1.694,1.694,0,0,0-.751.2,1.782,1.782,0,0,0,.635,3.355c.571.053,1.143.063,1.714.063s1.122-.021,1.672-.032c.349-.011.7-.021,1.058-.021a1.736,1.736,0,0,0,1.281-.6,1.684,1.684,0,0,0,.339-.582,1.8,1.8,0,0,0-1.619-2.381ZM72,6.043a1.835,1.835,0,0,0,.19.751l.011.011a1.782,1.782,0,0,0,1.566.931A1.834,1.834,0,0,0,74.1,7.7,1.787,1.787,0,0,0,75.544,6.17V6.159a27.354,27.354,0,0,0,0-4.561A1.8,1.8,0,0,0,73.829,0H73.7a1.808,1.808,0,0,0-1.545,1.016A1.755,1.755,0,0,0,72,1.6a30.012,30.012,0,0,0-.032,3.376Zm-14.149,1.5a26.455,26.455,0,0,0,2.275,2.339c.286.265.582.54.868.815a1.841,1.841,0,0,0,.709.413,1.62,1.62,0,0,0,.5.074,1.739,1.739,0,0,0,.963-.286,1.776,1.776,0,0,0,.8-1.238V9.652a1.832,1.832,0,0,0-.37-1.333l-.011-.011a29.132,29.132,0,0,0-2.953-2.984l-.222-.212L60.4,5.1a1.811,1.811,0,0,0-1.111-.444h-.011a1.8,1.8,0,0,0-1.63.984,1.829,1.829,0,0,0,.2,1.9Zm31.2-2.688a1.868,1.868,0,0,0-.783-.2,1.823,1.823,0,0,0-.413.042,1.96,1.96,0,0,0-.72.339l-.011.011a25.5,25.5,0,0,0-2.36,2.3c-.265.275-.529.561-.8.847a1.778,1.778,0,0,0,1.3,2.995,1.761,1.761,0,0,0,1.1-.381A24.315,24.315,0,0,0,88.719,8.5c.254-.275.529-.561.794-.836a1.822,1.822,0,0,0,.381-.614,1.769,1.769,0,0,0-.847-2.191Zm-7.239,8.72a15.276,15.276,0,0,0-3.058-1.524,14.71,14.71,0,0,0-4.582-.868c-.392-.011-.392-.011-.794,0a14.431,14.431,0,0,0-5.291,1.143A15.117,15.117,0,0,0,64.22,14.7a15.833,15.833,0,0,0-2.371,2.466,16.709,16.709,0,0,0-2.91,5.895A17.428,17.428,0,0,0,59,32.151a16.72,16.72,0,0,0,3.461,6.424l.148.159c.127.148.18.2.392.423l.3.3a9.8,9.8,0,0,1,.794.847,5.293,5.293,0,0,1,1.09,3.006c.011.265,0,.519,0,.794v.159c-.741.021-1.545.053-2.434.085h-.021a1.829,1.829,0,0,0-1.185.593,1.771,1.771,0,0,0-.413,1.45,1.8,1.8,0,0,0,.836,1.259l.011.011a1.951,1.951,0,0,0,.762.243h.021c1.873.074,3.778.127,5.641.159A5.411,5.411,0,0,0,73.787,52.9a5.284,5.284,0,0,0,.815-.064,5.475,5.475,0,0,0,4.053-3.006,5.719,5.719,0,0,0,.508-1.778c1.82-.032,3.715-.085,5.641-.159h.021a1.879,1.879,0,0,0,1.2-.593,1.77,1.77,0,0,0,.413-1.45A1.8,1.8,0,0,0,85.6,44.6a1.9,1.9,0,0,0-.762-.243H84.8c-.815-.032-1.619-.053-2.413-.085,0-.307.011-.614.011-.91a5.473,5.473,0,0,1,1.016-2.995c.127-.159.233-.3.339-.413.159-.169.328-.328.487-.5s.317-.317.476-.487A16.347,16.347,0,0,0,86.01,37.4a16.8,16.8,0,0,0,3.027-7.726,17.634,17.634,0,0,0-.54-7.016,16.382,16.382,0,0,0-6.688-9.08ZM75.025,48.872a1.875,1.875,0,0,1-2.5,0,2.026,2.026,0,0,1-.5-.762q1.746.016,3.492,0A1.947,1.947,0,0,1,75.025,48.872Zm10.329-18.6a13.2,13.2,0,0,1-3.016,6.064c-.212.233-.212.233-.434.466l-.063.063a12.888,12.888,0,0,0-1.291,1.429,8.923,8.923,0,0,0-1.7,5l-.011.921c-1.672-.032-3.365-.042-5.048-.042s-3.365.011-5.037.042v-.783a10.141,10.141,0,0,0-.169-1.587,9.048,9.048,0,0,0-2.265-4.381l-.381-.381c-.127-.116-.254-.243-.37-.37a13.076,13.076,0,0,1-3.291-6.138,13.8,13.8,0,0,1-.032-5.958,13.017,13.017,0,0,1,2.085-4.773,12.179,12.179,0,0,1,3.365-3.26,11.4,11.4,0,0,1,3.736-1.566,10.943,10.943,0,0,1,6.4.508,11.644,11.644,0,0,1,4.1,2.73,13.065,13.065,0,0,1,3.344,6.064,14.307,14.307,0,0,1,.085,5.958ZM97.493,17.25a1.71,1.71,0,0,0-1.281-.614c-1.429-.021-2.879-.021-4.328,0a1.694,1.694,0,0,0-.751.2,1.782,1.782,0,0,0,.635,3.355c.571.053,1.143.063,1.714.063s1.122-.021,1.672-.032c.349-.011.7-.021,1.058-.021h.011a1.757,1.757,0,0,0,1.545-1.079,1.782,1.782,0,0,0-.275-1.873Z" fill="#c1f8ab"/>
      <path id="Path_266" data-name="Path 266" d="M356.239,430.93l2.445,1.714-2.625,3.852-3.122-3.842a1.7,1.7,0,0,0-1.312-.624,1.676,1.676,0,0,0-1.312.635L346.82,437a1.693,1.693,0,0,0,2.635,2.127l2.18-2.709,3.228,3.979a1.666,1.666,0,0,0,1.312.624h.074a1.7,1.7,0,0,0,1.333-.741l3.884-5.694,2.286,1.609-1.027-6.53-6.487,1.259Z" transform="translate(-280.949 -407.468)" fill="#c1f8ab"/>
    </g>
    <path id="Path_268" data-name="Path 268" d="M1.752-11.435H9.483L11.2-21.553,19.1-3.514l5.5-14.6,3.264,6.682h9.682" transform="translate(627.946 491.886)" fill="none" stroke="#eee2d5" stroke-width="3"/>
    <g id="Group_8" data-name="Group 8" transform="translate(75.258 101.685)">
      <path id="Path_265-2" data-name="Path 265" d="M55.454,14.509c-1.254-.018-2.518-.018-3.773,0a1.476,1.476,0,0,0-.655.175,1.553,1.553,0,0,0,.553,2.924c.5.046,1,.055,1.494.055s.978-.018,1.457-.028c.3-.009.609-.018.922-.018a1.513,1.513,0,0,0,1.116-.526,1.468,1.468,0,0,0,.3-.507,1.572,1.572,0,0,0-1.411-2.075ZM69.2,5.267a1.6,1.6,0,0,0,.166.655l.009.009a1.553,1.553,0,0,0,1.365.812,1.6,1.6,0,0,0,.3-.028,1.557,1.557,0,0,0,1.254-1.337V5.369a23.841,23.841,0,0,0,0-3.976A1.565,1.565,0,0,0,70.793,0h-.111a1.576,1.576,0,0,0-1.347.885,1.53,1.53,0,0,0-.138.507,26.157,26.157,0,0,0-.028,2.942ZM56.865,6.577a23.058,23.058,0,0,0,1.983,2.038c.249.231.507.47.756.71a1.6,1.6,0,0,0,.618.36,1.412,1.412,0,0,0,.434.065A1.515,1.515,0,0,0,61.5,9.5a1.548,1.548,0,0,0,.7-1.079V8.412a1.6,1.6,0,0,0-.323-1.162l-.009-.009a25.391,25.391,0,0,0-2.573-2.6L59.1,4.455l-.009-.009a1.579,1.579,0,0,0-.969-.387H58.11a1.569,1.569,0,0,0-1.42.858,1.594,1.594,0,0,0,.175,1.66ZM84.057,4.234a1.628,1.628,0,0,0-.683-.175,1.589,1.589,0,0,0-.36.037,1.708,1.708,0,0,0-.627.3l-.009.009a22.229,22.229,0,0,0-2.057,2c-.231.24-.461.489-.7.738a1.549,1.549,0,0,0,1.135,2.61,1.534,1.534,0,0,0,.959-.332,21.192,21.192,0,0,0,2.057-2.011c.221-.24.461-.489.692-.729a1.588,1.588,0,0,0,.332-.535,1.542,1.542,0,0,0-.738-1.909Zm-6.309,7.6a13.314,13.314,0,0,0-2.666-1.328,12.821,12.821,0,0,0-3.994-.756c-.341-.009-.341-.009-.692,0a12.578,12.578,0,0,0-4.612,1,13.175,13.175,0,0,0-3.367,2.066,13.8,13.8,0,0,0-2.066,2.149A14.563,14.563,0,0,0,57.815,20.1a15.19,15.19,0,0,0,.055,7.923,14.572,14.572,0,0,0,3.016,5.6l.129.138c.111.129.157.175.341.369l.258.258a8.54,8.54,0,0,1,.692.738,4.613,4.613,0,0,1,.95,2.62c.009.231,0,.452,0,.692v.138c-.646.018-1.347.046-2.121.074h-.018a1.594,1.594,0,0,0-1.033.517,1.543,1.543,0,0,0-.36,1.264,1.57,1.57,0,0,0,.729,1.1l.009.009a1.7,1.7,0,0,0,.664.212h.018c1.633.065,3.293.111,4.916.138a4.716,4.716,0,0,0,4.695,4.225,4.605,4.605,0,0,0,.71-.055A4.772,4.772,0,0,0,75,43.436a4.985,4.985,0,0,0,.443-1.55c1.587-.028,3.238-.074,4.916-.138h.018a1.638,1.638,0,0,0,1.042-.517,1.543,1.543,0,0,0,.36-1.264,1.57,1.57,0,0,0-.729-1.1,1.657,1.657,0,0,0-.664-.212h-.028c-.71-.028-1.411-.046-2.1-.074,0-.267.009-.535.009-.793a4.77,4.77,0,0,1,.885-2.61c.111-.138.2-.258.3-.36.138-.148.286-.286.424-.434s.277-.277.415-.424A14.247,14.247,0,0,0,81.41,32.6a14.643,14.643,0,0,0,2.638-6.733,15.37,15.37,0,0,0-.47-6.115,14.278,14.278,0,0,0-5.83-7.914ZM71.835,42.6a1.635,1.635,0,0,1-2.177,0,1.766,1.766,0,0,1-.434-.664q1.522.014,3.044,0A1.7,1.7,0,0,1,71.835,42.6Zm9-16.216a11.5,11.5,0,0,1-2.629,5.285c-.184.2-.184.2-.378.406l-.055.055a11.233,11.233,0,0,0-1.125,1.245,7.778,7.778,0,0,0-1.485,4.354l-.009.8c-1.457-.028-2.933-.037-4.4-.037s-2.933.009-4.391.037v-.683a8.838,8.838,0,0,0-.148-1.384,7.886,7.886,0,0,0-1.974-3.819l-.332-.332c-.111-.1-.221-.212-.323-.323a11.4,11.4,0,0,1-2.869-5.35,12.027,12.027,0,0,1-.028-5.193,11.346,11.346,0,0,1,1.817-4.16,10.615,10.615,0,0,1,2.933-2.841A9.938,9.938,0,0,1,68.7,13.08a9.537,9.537,0,0,1,5.58.443,10.149,10.149,0,0,1,3.57,2.38,11.387,11.387,0,0,1,2.915,5.285,12.47,12.47,0,0,1,.074,5.193Zm10.58-11.345A1.49,1.49,0,0,0,90.3,14.5c-1.245-.018-2.509-.018-3.773,0a1.476,1.476,0,0,0-.655.175,1.553,1.553,0,0,0,.553,2.924c.5.046,1,.055,1.494.055s.978-.018,1.457-.028c.3-.009.609-.018.922-.018h.009a1.532,1.532,0,0,0,1.347-.941,1.553,1.553,0,0,0-.24-1.633Z" transform="translate(0 0)" fill="#c1f8ab"/>
      <path id="Path_266-2" data-name="Path 266" d="M354.981,430.768l2.131,1.494-2.288,3.357-2.721-3.348a1.48,1.48,0,0,0-1.144-.544,1.46,1.46,0,0,0-1.144.553l-3.044,3.782a1.476,1.476,0,0,0,2.3,1.854l1.9-2.361,2.813,3.468a1.452,1.452,0,0,0,1.144.544h.065a1.478,1.478,0,0,0,1.162-.646l3.385-4.962,1.992,1.4-.895-5.691-5.654,1.1Z" transform="translate(-282.915 -410.319)" fill="#c1f8ab"/>
    </g>
    <text id="Front_End_Developer" data-name="Front End Developer" transform="matrix(0.809, 0.588, -0.588, 0.809, 59.686, 22.009)" fill="#f8f8f8" font-size="70" font-family="Digital-7Mono, Digital-7 Mono"><tspan x="0" y="0">Front End Developer</tspan></text>
    <path id="Path_342" data-name="Path 342" d="M1.752-11.435H9.483L11.2-21.553,19.1-3.514l5.5-14.6,3.264,6.682h9.682" transform="translate(-2.054 262.886)" fill="none" stroke="#eee2d5" stroke-width="3"/>
    <path id="Path_343" data-name="Path 343" d="M1.752-11.435H9.483L11.2-21.553,19.1-3.514l5.5-14.6,3.264,6.682h9.682" transform="translate(174.946 3.886)" fill="none" stroke="#eee2d5" stroke-width="3"/>
    <g id="Group_13" data-name="Group 13" transform="translate(836.258 447.685)">
      <path id="Path_265-3" data-name="Path 265" d="M55.454,14.509c-1.254-.018-2.518-.018-3.773,0a1.476,1.476,0,0,0-.655.175,1.553,1.553,0,0,0,.553,2.924c.5.046,1,.055,1.494.055s.978-.018,1.457-.028c.3-.009.609-.018.922-.018a1.513,1.513,0,0,0,1.116-.526,1.468,1.468,0,0,0,.3-.507,1.572,1.572,0,0,0-1.411-2.075ZM69.2,5.267a1.6,1.6,0,0,0,.166.655l.009.009a1.553,1.553,0,0,0,1.365.812,1.6,1.6,0,0,0,.3-.028,1.557,1.557,0,0,0,1.254-1.337V5.369a23.841,23.841,0,0,0,0-3.976A1.565,1.565,0,0,0,70.793,0h-.111a1.576,1.576,0,0,0-1.347.885,1.53,1.53,0,0,0-.138.507,26.157,26.157,0,0,0-.028,2.942ZM56.865,6.577a23.058,23.058,0,0,0,1.983,2.038c.249.231.507.47.756.71a1.6,1.6,0,0,0,.618.36,1.412,1.412,0,0,0,.434.065A1.515,1.515,0,0,0,61.5,9.5a1.548,1.548,0,0,0,.7-1.079V8.412a1.6,1.6,0,0,0-.323-1.162l-.009-.009a25.391,25.391,0,0,0-2.573-2.6L59.1,4.455l-.009-.009a1.579,1.579,0,0,0-.969-.387H58.11a1.569,1.569,0,0,0-1.42.858,1.594,1.594,0,0,0,.175,1.66ZM84.057,4.234a1.628,1.628,0,0,0-.683-.175,1.589,1.589,0,0,0-.36.037,1.708,1.708,0,0,0-.627.3l-.009.009a22.229,22.229,0,0,0-2.057,2c-.231.24-.461.489-.7.738a1.549,1.549,0,0,0,1.135,2.61,1.534,1.534,0,0,0,.959-.332,21.192,21.192,0,0,0,2.057-2.011c.221-.24.461-.489.692-.729a1.588,1.588,0,0,0,.332-.535,1.542,1.542,0,0,0-.738-1.909Zm-6.309,7.6a13.314,13.314,0,0,0-2.666-1.328,12.821,12.821,0,0,0-3.994-.756c-.341-.009-.341-.009-.692,0a12.578,12.578,0,0,0-4.612,1,13.175,13.175,0,0,0-3.367,2.066,13.8,13.8,0,0,0-2.066,2.149A14.563,14.563,0,0,0,57.815,20.1a15.19,15.19,0,0,0,.055,7.923,14.572,14.572,0,0,0,3.016,5.6l.129.138c.111.129.157.175.341.369l.258.258a8.54,8.54,0,0,1,.692.738,4.613,4.613,0,0,1,.95,2.62c.009.231,0,.452,0,.692v.138c-.646.018-1.347.046-2.121.074h-.018a1.594,1.594,0,0,0-1.033.517,1.543,1.543,0,0,0-.36,1.264,1.57,1.57,0,0,0,.729,1.1l.009.009a1.7,1.7,0,0,0,.664.212h.018c1.633.065,3.293.111,4.916.138a4.716,4.716,0,0,0,4.695,4.225,4.605,4.605,0,0,0,.71-.055A4.772,4.772,0,0,0,75,43.436a4.985,4.985,0,0,0,.443-1.55c1.587-.028,3.238-.074,4.916-.138h.018a1.638,1.638,0,0,0,1.042-.517,1.543,1.543,0,0,0,.36-1.264,1.57,1.57,0,0,0-.729-1.1,1.657,1.657,0,0,0-.664-.212h-.028c-.71-.028-1.411-.046-2.1-.074,0-.267.009-.535.009-.793a4.77,4.77,0,0,1,.885-2.61c.111-.138.2-.258.3-.36.138-.148.286-.286.424-.434s.277-.277.415-.424A14.247,14.247,0,0,0,81.41,32.6a14.643,14.643,0,0,0,2.638-6.733,15.37,15.37,0,0,0-.47-6.115,14.278,14.278,0,0,0-5.83-7.914ZM71.835,42.6a1.635,1.635,0,0,1-2.177,0,1.766,1.766,0,0,1-.434-.664q1.522.014,3.044,0A1.7,1.7,0,0,1,71.835,42.6Zm9-16.216a11.5,11.5,0,0,1-2.629,5.285c-.184.2-.184.2-.378.406l-.055.055a11.233,11.233,0,0,0-1.125,1.245,7.778,7.778,0,0,0-1.485,4.354l-.009.8c-1.457-.028-2.933-.037-4.4-.037s-2.933.009-4.391.037v-.683a8.838,8.838,0,0,0-.148-1.384,7.886,7.886,0,0,0-1.974-3.819l-.332-.332c-.111-.1-.221-.212-.323-.323a11.4,11.4,0,0,1-2.869-5.35,12.027,12.027,0,0,1-.028-5.193,11.346,11.346,0,0,1,1.817-4.16,10.615,10.615,0,0,1,2.933-2.841A9.938,9.938,0,0,1,68.7,13.08a9.537,9.537,0,0,1,5.58.443,10.149,10.149,0,0,1,3.57,2.38,11.387,11.387,0,0,1,2.915,5.285,12.47,12.47,0,0,1,.074,5.193Zm10.58-11.345A1.49,1.49,0,0,0,90.3,14.5c-1.245-.018-2.509-.018-3.773,0a1.476,1.476,0,0,0-.655.175,1.553,1.553,0,0,0,.553,2.924c.5.046,1,.055,1.494.055s.978-.018,1.457-.028c.3-.009.609-.018.922-.018h.009a1.532,1.532,0,0,0,1.347-.941,1.553,1.553,0,0,0-.24-1.633Z" transform="translate(0 0)" fill="#c1f8ab"/>
      <path id="Path_266-3" data-name="Path 266" d="M354.981,430.768l2.131,1.494-2.288,3.357-2.721-3.348a1.48,1.48,0,0,0-1.144-.544,1.46,1.46,0,0,0-1.144.553l-3.044,3.782a1.476,1.476,0,0,0,2.3,1.854l1.9-2.361,2.813,3.468a1.452,1.452,0,0,0,1.144.544h.065a1.478,1.478,0,0,0,1.162-.646l3.385-4.962,1.992,1.4-.895-5.691-5.654,1.1Z" transform="translate(-282.915 -410.319)" fill="#c1f8ab"/>
    </g>
  </g>
</svg>
