<svg xmlns="http://www.w3.org/2000/svg" xmlns:xlink="http://www.w3.org/1999/xlink" width="120.584" height="71.65" viewBox="0 0 120.584 71.65">
  <defs>
    <linearGradient id="linear-gradient" x1="0.5" y1="1" x2="0.5" gradientUnits="objectBoundingBox">
      <stop offset="0" stop-color="#5320a1"/>
      <stop offset="0.841" stop-color="#5320a1"/>
      <stop offset="1" stop-color="#9468fe"/>
    </linearGradient>
  </defs>
  <g id="logo" transform="translate(-110 -531.35)">
    <text id="KHa" transform="translate(110 591)" fill="#5320a1" font-size="70" font-family="Digital-7" letter-spacing="0.05em"><tspan x="0" y="0">KHA</tspan></text>
    <g id="star" transform="translate(207 531.35)">
      <path id="Path_339" data-name="Path 339" d="M320.752,295.146a3.689,3.689,0,0,1-3.685-3.685.461.461,0,1,0-.921,0,3.689,3.689,0,0,1-3.685,3.685.461.461,0,1,0,0,.921,3.689,3.689,0,0,1,3.685,3.685.461.461,0,0,0,.921,0,3.689,3.689,0,0,1,3.685-3.685.461.461,0,0,0,0-.921Zm-4.146,2.6a4.637,4.637,0,0,0-2.139-2.139,4.637,4.637,0,0,0,2.139-2.139,4.637,4.637,0,0,0,2.139,2.139A4.636,4.636,0,0,0,316.606,297.745Z" transform="translate(-312 -291)" fill="url(#linear-gradient)"/>
      <path id="Path_340" data-name="Path 340" d="M5.988,23.764a2.306,2.306,0,0,1-2.3-2.3.461.461,0,0,0-.921,0,2.306,2.306,0,0,1-2.3,2.3.461.461,0,1,0,0,.921,2.306,2.306,0,0,1,2.3,2.3.461.461,0,1,0,.921,0,2.306,2.306,0,0,1,2.3-2.3.461.461,0,1,0,0-.921ZM3.224,25.329a3.251,3.251,0,0,0-1.1-1.1,3.25,3.25,0,0,0,1.1-1.1,3.251,3.251,0,0,0,1.1,1.1A3.251,3.251,0,0,0,3.224,25.329Z" transform="translate(17.135 -5.799)" fill="url(#linear-gradient)"/>
      <circle id="Ellipse_5" data-name="Ellipse 5" cx="0.394" cy="0.394" r="0.394" transform="translate(10.201 8.66)" fill="url(#linear-gradient)"/>
      <path id="Path_341" data-name="Path 341" d="M41.082,58.361a.461.461,0,0,0-.631-.161,7.821,7.821,0,0,1-3.99,1.091.461.461,0,1,0,0,.921,7.84,7.84,0,0,1,7.831,7.831.461.461,0,1,0,.921,0,7.84,7.84,0,0,1,7.831-7.831.461.461,0,1,0,0-.921,7.84,7.84,0,0,1-7.831-7.831.461.461,0,1,0-.921,0,7.821,7.821,0,0,1-1.091,3.99.461.461,0,0,0,.792.47,8.69,8.69,0,0,0,.76-1.655,8.794,8.794,0,0,0,5.487,5.486,8.794,8.794,0,0,0-5.487,5.487,8.794,8.794,0,0,0-5.486-5.487,8.693,8.693,0,0,0,1.655-.76A.461.461,0,0,0,41.082,58.361Z" transform="translate(-31.578 -48.236)" fill="url(#linear-gradient)"/>
    </g>
  </g>
</svg>
