<svg height="512pt" viewBox="0 -9 512.00092 512" width="512pt" xmlns="http://www.w3.org/2000/svg"><path d="m89.648438 236.097656 140.539062 180.6875 28.136719-11.953125-155.453125-199.871093zm0 0"/><path d="m3.941406 431.101562c-7.636718 17.167969-3.988281 36.835938 9.296875 50.121094 13.285157 13.285156 32.949219 16.933594 49.894531 9.398438l81.757813-37.605469-95.324219-122.558594zm0 0"/><path d="m62.996094 298.84375 110.46875 142.03125 28.144531-11.953125-125.390625-161.210937zm0 0"/><path d="m399.171875 349.949219-254.660156-254.660157c-5.867188-5.867187-15.359375-5.867187-21.222657 0-5.867187 5.867188-5.867187 15.355469 0 21.222657l14.058594 14.058593-21.046875 42.773438 170.601563 219.347656 76.988281-35.578125 14.058594 14.058594c5.867187 5.867187 15.355469 5.867187 21.222656 0 5.863281-5.863281 5.863281-15.355469 0-21.222656zm0 0"/><path d="m256.621094 25.621094 10.613281 10.609375-10.613281 10.613281c-5.863282 5.863281-5.863282 15.355469 0 21.222656 5.867187 5.863282 15.359375 5.863282 21.222656 0l10.609375-10.613281 10.613281 10.613281c5.863282 5.863282 15.355469 5.863282 21.21875 0 5.867188-5.867187 5.867188-15.359375 0-21.222656l-10.609375-10.613281 10.609375-10.609375c5.867188-5.867188 5.867188-15.355469 0-21.222656-5.863281-5.863282-15.355468-5.863282-21.21875 0l-10.613281 10.613281-10.609375-10.613281c-5.867188-5.863282-15.359375-5.863282-21.222656 0-5.863282 5.867187-5.863282 15.359374 0 21.222656zm0 0"/><path d="m341.507812 110.507812c-17.550781-17.550781-46.109374-17.550781-63.664062 0-17.554688 17.554688-17.554688 46.113282 0 63.664063 17.550781 17.554687 46.109375 17.554687 63.664062 0 17.554688-17.550781 17.554688-46.109375 0-63.664063zm0 0"/><path d="m214.175781 68.066406c-5.859375-5.859375-15.363281-5.859375-21.222656 0s-5.859375 15.359375 0 21.21875c5.859375 5.863282 15.363281 5.863282 21.222656 0 5.859375-5.859375 5.859375-15.359375 0-21.21875zm0 0"/><path d="m405.167969 259.0625c-5.859375-5.863281-15.359375-5.863281-21.21875 0-5.863281 5.859375-5.863281 15.359375 0 21.21875 5.859375 5.863281 15.359375 5.863281 21.21875 0 5.859375-5.859375 5.859375-15.359375 0-21.21875zm0 0"/><path d="m383.949219 25.625c-5.859375-5.863281-15.363281-5.863281-21.222657 0-5.859374 5.859375-5.859374 15.359375 0 21.21875 5.859376 5.863281 15.363282 5.863281 21.222657 0 5.859375-5.859375 5.859375-15.359375 0-21.21875zm0 0"/><path d="m447.613281 4.402344c-5.859375-5.859375-15.359375-5.859375-21.222656 0-5.859375 5.859375-5.859375 15.363281 0 21.222656 5.863281 5.859375 15.363281 5.859375 21.222656 0s5.859375-15.363281 0-21.222656zm0 0"/><path d="m468.832031 237.839844c-5.859375-5.859375-15.359375-5.859375-21.21875 0-5.863281 5.859375-5.863281 15.363281 0 21.222656 5.859375 5.859375 15.359375 5.859375 21.21875 0 5.863281-5.859375 5.863281-15.363281 0-21.222656zm0 0"/><path d="m462.15625 112.074219c-6.125-22.476563-24.074219-40.734375-45.792969-46.457031-17.167969-4.527344-33.851562-.214844-45.769531 11.84375-18.898438 19.152343-18.617188 43.035156.726562 62.382812.042969.039062.09375.09375.144532.144531 10.351562 10.269531 26.589844 19.003907 44.214844 23.988281-11.519532 10.652344-27.59375 20.09375-47.839844 28.070313-7.722656 3.039063-11.503906 11.75-8.457032 19.460937 3.003907 7.648438 11.71875 11.523438 19.460938 8.457032 25.625-10.105469 46.019531-22.621094 60.597656-37.203125 4.871094-4.867188 8.839844-9.707031 12.074219-14.472657 14.941406-.851562 28.710937-5.503906 38.546875-15.335937 29.25-29.253906 29.25-76.859375 0-106.109375-5.867188-5.867188-15.359375-5.867188-21.222656 0-5.863282 5.863281-5.867188 15.355469 0 21.21875 17.554687 17.554688 17.554687 46.113281 0 63.667969-1.316406 1.316406-2.941406 2.425781-4.816406 3.347656.929687-9.347656-.335938-17.304687-1.867188-23.003906zm-69.53125 6.628906c-.03125-.03125-.070312-.070313-.105469-.101563-8.566406-8.570312-6.691406-13.84375-.570312-20.050781 4.332031-4.394531 9.980469-5.710937 16.765625-3.917969 11.300781 2.972657 21.300781 13.546876 24.457031 25.261719 1.542969 5.710938 1.554687 11.546875.074219 17.359375-15.183594-2.519531-31.128906-9.121094-40.621094-18.550781zm0 0"/></svg>