<?xml version="1.0" encoding="iso-8859-1"?>
<!-- Generator: Adobe Illustrator 19.0.0, SVG Export Plug-In . SVG Version: 6.00 Build 0)  -->
<svg version="1.1" id="Capa_1" xmlns="http://www.w3.org/2000/svg" xmlns:xlink="http://www.w3.org/1999/xlink" x="0px" y="0px"
	 viewBox="0 0 114.822 114.822" style="enable-background:new 0 0 114.822 114.822;" xml:space="preserve">
<g>
	<path d="M100.341,47.517C98.839,31.702,85.525,19.33,69.315,19.33c-13.516,0-25.019,8.602-29.341,20.63
		c-2.222-1.067-4.704-1.682-7.334-1.682c-8.695,0-15.853,6.535-16.858,14.961C6.684,55.749,0,64.077,0,73.974
		c0,11.884,9.634,21.519,21.517,21.519h24.522V77.27H35.194c-1.771,0-3.364-1.121-4.029-2.832c-0.667-1.708-0.267-3.669,1.002-4.954
		l23.948-24.163c1.687-1.703,4.366-1.703,6.052,0l23.681,23.896c0.985,0.829,1.615,2.097,1.615,3.521
		c0,2.502-1.947,4.532-4.348,4.532c-0.008,0-0.017,0-0.024,0H71.413v18.222h13.182c0.815,0,1.616-0.05,2.411-0.14
		c0.866,0.09,1.746,0.14,2.638,0.14c13.908,0,25.178-11.277,25.178-25.18C114.823,60.231,108.896,51.54,100.341,47.517z"/>
</g>
<g>
</g>
<g>
</g>
<g>
</g>
<g>
</g>
<g>
</g>
<g>
</g>
<g>
</g>
<g>
</g>
<g>
</g>
<g>
</g>
<g>
</g>
<g>
</g>
<g>
</g>
<g>
</g>
<g>
</g>
</svg>
