<?xml version="1.0" encoding="iso-8859-1"?>
<!-- Generator: Adobe Illustrator 19.0.0, SVG Export Plug-In . SVG Version: 6.00 Build 0)  -->
<svg version="1.1" id="Capa_1" xmlns="http://www.w3.org/2000/svg" xmlns:xlink="http://www.w3.org/1999/xlink" x="0px" y="0px"
	 viewBox="0 0 118.536 118.536" style="enable-background:new 0 0 118.536 118.536;" xml:space="preserve">
<g>
	<path d="M103.884,18.273v-0.281C103.884,8.055,97.883,0,90.482,0H28.057c-7.406,0-13.408,8.056-13.408,17.992v0.281H103.884z"/>
	<path d="M104.361,33.61c-1.495-1.749-3.68-2.758-5.983-2.758H20.16c-2.304,0-4.491,1.009-5.986,2.758
		c-1.496,1.752-2.149,4.068-1.79,6.345l11.373,71.939c0.604,3.827,3.9,6.642,7.776,6.642h55.47c3.873,0,7.17-2.814,7.776-6.642
		l11.373-71.939C106.512,37.678,105.857,35.362,104.361,33.61z M37.202,107.843c-0.132,0.012-0.266,0.018-0.396,0.018
		c-2.307,0-4.271-1.765-4.475-4.108l-4.703-53.772c-0.218-2.473,1.615-4.655,4.088-4.869c2.454-0.266,4.657,1.612,4.872,4.088
		l4.705,53.773C41.508,105.446,39.678,107.63,37.202,107.843z M63.766,103.365c0,2.482-2.017,4.496-4.5,4.496
		c-2.485,0-4.498-2.014-4.498-4.496v-53.98c0-2.485,2.014-4.498,4.498-4.498s4.5,2.015,4.5,4.498V103.365z M85.628,103.752
		c-0.203,2.344-2.165,4.108-4.474,4.108c-0.128,0-0.265-0.006-0.397-0.018c-2.474-0.213-4.307-2.402-4.088-4.87l4.701-53.773
		c0.216-2.476,2.403-4.343,4.873-4.088c2.477,0.214,4.304,2.397,4.087,4.869L85.628,103.752z"/>
</g>
<g>
</g>
<g>
</g>
<g>
</g>
<g>
</g>
<g>
</g>
<g>
</g>
<g>
</g>
<g>
</g>
<g>
</g>
<g>
</g>
<g>
</g>
<g>
</g>
<g>
</g>
<g>
</g>
<g>
</g>
</svg>
