<?xml version="1.0" encoding="iso-8859-1"?>
<!-- Generator: Adobe Illustrator 19.0.0, SVG Export Plug-In . SVG Version: 6.00 Build 0)  -->
<svg version="1.1" id="Capa_1" xmlns="http://www.w3.org/2000/svg" xmlns:xlink="http://www.w3.org/1999/xlink" x="0px" y="0px"
	 viewBox="0 0 116.437 116.437" style="enable-background:new 0 0 116.437 116.437;" xml:space="preserve">
<g>
	<path d="M106.675,24.055H9.761C4.371,24.055,0,28.427,0,33.816V82.62c0,5.39,4.371,9.762,9.761,9.762h96.914
		c5.39,0,9.762-4.372,9.762-9.762V33.816C116.437,28.427,112.065,24.055,106.675,24.055z M7.559,86.429V30.847h100.505v55.583H7.559
		z"/>
	<path d="M17.32,76.668h80.986V40.608H17.32V76.668z M58.219,45.352c7.339,0,13.287,5.95,13.287,13.287
		c0,7.34-5.947,13.286-13.287,13.286s-13.286-5.946-13.286-13.286C44.933,51.302,50.88,45.352,58.219,45.352z"/>
</g>
<g>
</g>
<g>
</g>
<g>
</g>
<g>
</g>
<g>
</g>
<g>
</g>
<g>
</g>
<g>
</g>
<g>
</g>
<g>
</g>
<g>
</g>
<g>
</g>
<g>
</g>
<g>
</g>
<g>
</g>
</svg>
