<?xml version="1.0" encoding="iso-8859-1"?>
<!-- Generator: Adobe Illustrator 19.0.0, SVG Export Plug-In . SVG Version: 6.00 Build 0)  -->
<svg version="1.1" id="Capa_1" xmlns="http://www.w3.org/2000/svg" xmlns:xlink="http://www.w3.org/1999/xlink" x="0px" y="0px"
	 viewBox="0 0 120.386 120.386" style="enable-background:new 0 0 120.386 120.386;" xml:space="preserve">
<g>
	<path d="M81.534,0H38.852C31.6,0,25.719,5.88,25.719,13.133v94.12c0,7.252,5.88,13.133,13.133,13.133h42.682
		c7.253,0,13.134-5.881,13.134-13.133v-94.12C94.667,5.88,88.786,0,81.534,0z M60.193,114.452c-3.674,0-6.652-2.976-6.652-6.651
		s2.979-6.651,6.652-6.651c3.675,0,6.653,2.976,6.653,6.651S63.868,114.452,60.193,114.452z M82.636,95.023H37.749V15.221
		c0-1.648,1.343-2.991,2.993-2.991h38.904c1.648,0,2.992,1.343,2.992,2.991L82.636,95.023L82.636,95.023z"/>
</g>
<g>
</g>
<g>
</g>
<g>
</g>
<g>
</g>
<g>
</g>
<g>
</g>
<g>
</g>
<g>
</g>
<g>
</g>
<g>
</g>
<g>
</g>
<g>
</g>
<g>
</g>
<g>
</g>
<g>
</g>
</svg>
